<svg width="105" height="30" viewBox="0 0 105 30" fill="none" xmlns="http://www.w3.org/2000/svg">
<path d="M105 26.9927C105 28.6544 103.648 30 101.977 30H3.02741C1.35667 30 0 28.6544 0 26.9927V3.01162C0 1.35074 1.35667 0 3.02741 0H101.976C103.648 0 104.999 1.35074 104.999 3.01162V26.9927H105Z" fill="black"/>
<path d="M23.0582 14.8351C23.0351 12.3044 25.1391 11.0733 25.2353 11.0161C24.0442 9.28599 22.1967 9.04933 21.548 9.03054C19.9965 8.86906 18.4922 9.95495 17.7019 9.95495C16.8961 9.95495 15.6785 9.04677 14.3682 9.07411C12.6803 9.09974 11.1013 10.0729 10.2355 11.5834C8.44806 14.6633 9.78156 19.1897 11.4926 21.6793C12.349 22.8985 13.3496 24.2604 14.6599 24.2125C15.9411 24.1595 16.4199 23.3992 17.9671 23.3992C19.4988 23.3992 19.9484 24.2125 21.2845 24.1818C22.6601 24.1595 23.5259 22.9575 24.3523 21.7263C25.3417 20.3286 25.739 18.9522 25.7553 18.8813C25.7235 18.8711 23.084 17.8689 23.0582 14.8351Z" fill="white"/>
<path d="M20.5344 7.39355C21.2234 6.53491 21.6945 5.36786 21.5641 4.18201C20.5661 4.22643 19.3184 4.86891 18.6002 5.7096C17.9652 6.44862 17.3971 7.66096 17.5439 8.80153C18.6645 8.88441 19.8144 8.23851 20.5344 7.39355Z" fill="white"/>
<path d="M38.5369 19.6811L37.6496 16.9522C37.556 16.6737 37.3793 16.0176 37.1201 14.9838H37.0884C36.9854 15.4289 36.8189 16.0842 36.5907 16.9522L35.7188 19.6811H38.5369ZM41.6046 24.0374H39.8137L38.8329 20.9677H35.4228L34.4883 24.0374H32.7446L36.123 13.5886H38.2099L41.6046 24.0374Z" fill="white"/>
<path d="M48.5801 20.2389C48.5801 19.5059 48.4137 18.901 48.0816 18.4251C47.7177 17.9296 47.2303 17.6809 46.6176 17.6809C46.2032 17.6809 45.8265 17.8194 45.4892 18.0919C45.152 18.3661 44.9315 18.725 44.8276 19.1701C44.7753 19.3769 44.7495 19.5469 44.7495 19.681V20.9369C44.7495 21.4846 44.9186 21.9476 45.2558 22.3244C45.5931 22.702 46.0316 22.8908 46.5713 22.8908C47.2046 22.8908 47.698 22.6473 48.0507 22.1621C48.4034 21.6759 48.5801 21.0352 48.5801 20.2389ZM50.2929 20.1774C50.2929 21.4589 49.9454 22.4713 49.2495 23.2155C48.6265 23.8776 47.8533 24.2083 46.9291 24.2083C45.9329 24.2083 45.2163 23.8511 44.7804 23.1386H44.7495V27.1071H43.0676V18.9838C43.0676 18.1782 43.047 17.3512 43.0059 16.5028H44.4844L44.5779 17.6972H44.6097C45.17 16.7975 46.0213 16.3481 47.1634 16.3481C48.0558 16.3481 48.8007 16.6993 49.3979 17.4016C49.9943 18.1056 50.2929 19.0308 50.2929 20.1774Z" fill="white"/>
<path d="M57.2838 20.2389C57.2838 19.5059 57.1173 18.901 56.7852 18.4251C56.4214 17.9296 55.9348 17.6809 55.3213 17.6809C54.9059 17.6809 54.5301 17.8194 54.1928 18.0919C53.8556 18.3661 53.6351 18.725 53.5312 19.1701C53.4798 19.3769 53.454 19.5469 53.454 19.681V20.9369C53.454 21.4846 53.6222 21.9476 53.9586 22.3244C54.2958 22.702 54.7352 22.8908 55.2758 22.8908C55.9082 22.8908 56.4016 22.6473 56.7543 22.1621C57.107 21.6759 57.2838 21.0352 57.2838 20.2389ZM58.9965 20.1774C58.9965 21.4589 58.6481 22.4713 57.9522 23.2155C57.3301 23.8776 56.5569 24.2083 55.6327 24.2083C54.6365 24.2083 53.92 23.8511 53.484 23.1386H53.454V27.1071H51.7721V18.9838C51.7721 18.1782 51.7507 17.3512 51.7095 16.5028H53.1889L53.2824 17.6972H53.3133C53.8736 16.7975 54.724 16.3481 55.867 16.3481C56.7586 16.3481 57.5043 16.6993 58.1015 17.4016C58.6979 18.1056 58.9965 19.0308 58.9965 20.1774Z" fill="white"/>
<path d="M68.7281 21.1078C68.7281 21.9964 68.4184 22.7191 67.7962 23.2779C67.1123 23.8879 66.1607 24.1929 64.9379 24.1929C63.8086 24.1929 62.9024 23.9751 62.2168 23.541L62.6072 22.1459C63.3452 22.591 64.1553 22.8131 65.0374 22.8131C65.6707 22.8131 66.1632 22.6704 66.5176 22.3859C66.8703 22.1014 67.0462 21.7204 67.0462 21.2445C67.0462 20.8199 66.9012 20.4628 66.6103 20.1732C66.3203 19.8835 65.8372 19.6144 65.1627 19.3649C63.3246 18.6823 62.4064 17.6835 62.4064 16.3687C62.4064 15.5092 62.7282 14.8052 63.3727 14.2567C64.0145 13.7082 64.8709 13.4331 65.9419 13.4331C66.8969 13.4331 67.6898 13.5989 68.3231 13.9295L67.9026 15.2939C67.3114 14.9735 66.6429 14.8129 65.8938 14.8129C65.3026 14.8129 64.84 14.9581 64.5097 15.2478C64.2291 15.5058 64.0892 15.821 64.0892 16.1935C64.0892 16.6071 64.2488 16.9479 64.5706 17.2162C64.8512 17.4648 65.3592 17.7331 66.0972 18.0227C66.9999 18.385 67.6641 18.8079 68.0906 19.2932C68.5153 19.7793 68.7281 20.385 68.7281 21.1078Z" fill="white"/>
<path d="M74.2876 17.7587H72.435V21.4179C72.435 22.3474 72.761 22.8131 73.4158 22.8131C73.7161 22.8131 73.9658 22.7866 74.1632 22.7353L74.2087 24.0066C73.8783 24.1305 73.4424 24.1929 72.9018 24.1929C72.2376 24.1929 71.7184 23.9904 71.3443 23.588C70.9719 23.1847 70.7831 22.5081 70.7831 21.5572V17.7587H69.6787V16.5028H70.7831V15.123L72.435 14.6274V16.5028H74.2876V17.7587Z" fill="white"/>
<path d="M80.9044 20.2628C80.9044 19.5682 80.7551 18.9719 80.4539 18.4746C80.1003 17.8732 79.5966 17.5733 78.9436 17.5733C78.2674 17.5733 77.7551 17.8732 77.4016 18.4746C77.1004 18.9719 76.9511 19.5776 76.9511 20.2944C76.9511 20.989 77.1004 21.5845 77.4016 22.0818C77.7654 22.6824 78.2734 22.9831 78.9282 22.9831C79.5709 22.9831 80.0746 22.6772 80.4376 22.0664C80.7491 21.5589 80.9044 20.9566 80.9044 20.2628ZM82.6498 20.2081C82.6498 21.3658 82.3168 22.3167 81.6535 23.0609C80.9567 23.8264 80.0325 24.2083 78.881 24.2083C77.7697 24.2083 76.8859 23.8409 76.2268 23.1078C75.5678 22.3739 75.2383 21.4478 75.2383 20.3329C75.2383 19.165 75.5772 18.2081 76.2577 17.4648C76.9365 16.7198 77.8538 16.3481 79.0054 16.3481C80.1158 16.3481 81.0091 16.7147 81.6844 17.4494C82.328 18.1628 82.6498 19.0821 82.6498 20.2081Z" fill="white"/>
<path d="M88.1148 17.9757C87.9484 17.9449 87.7707 17.9296 87.5845 17.9296C86.9933 17.9296 86.5359 18.1517 86.2141 18.5968C85.9335 18.989 85.7937 19.4854 85.7937 20.0843V24.0374H84.1126L84.1281 18.8753C84.1281 18.0065 84.1066 17.2162 84.0654 16.5028H85.5302L85.5911 17.9449H85.6375C85.8151 17.4494 86.0949 17.0504 86.4784 16.7514C86.8534 16.4823 87.2585 16.3481 87.6944 16.3481C87.8497 16.3481 87.9896 16.3593 88.1148 16.3789V17.9757Z" fill="white"/>
<path d="M94.0311 19.4794C94.0423 18.9838 93.9324 18.555 93.705 18.1927C93.4133 17.7279 92.9671 17.4955 92.3647 17.4955C91.8146 17.4955 91.3684 17.722 91.026 18.1782C90.7454 18.5396 90.5798 18.9736 90.5283 19.4794H94.0311ZM95.6349 19.9142C95.6349 20.2133 95.6143 20.467 95.5731 20.6729H90.5283C90.5489 21.4179 90.7918 21.9861 91.2603 22.3791C91.685 22.7302 92.2351 22.9062 92.9096 22.9062C93.657 22.9062 94.3375 22.7866 94.951 22.5491L95.2144 23.7119C94.4979 24.022 93.6527 24.1775 92.677 24.1775C91.504 24.1775 90.5824 23.834 89.9122 23.1454C89.2437 22.4585 88.9082 21.5367 88.9082 20.3782C88.9082 19.2419 89.2197 18.2961 89.8427 17.5417C90.4966 16.7352 91.3787 16.3328 92.49 16.3328C93.5798 16.3328 94.4053 16.7352 94.9665 17.5417C95.411 18.1825 95.6349 18.9736 95.6349 19.9142Z" fill="white"/>
<path d="M37.109 7.18345C37.109 6.58369 36.9494 6.12404 36.6311 5.80451C36.3119 5.48413 35.8468 5.32436 35.2349 5.32436C34.9741 5.32436 34.7527 5.3423 34.569 5.37819V9.21683C34.6712 9.23221 34.8574 9.23904 35.1277 9.23904C35.7601 9.23904 36.2484 9.0639 36.5925 8.71361C36.9366 8.36332 37.109 7.85327 37.109 7.18345ZM37.9809 7.16038C37.9809 8.0848 37.7029 8.78025 37.1468 9.24758C36.6319 9.67818 35.9 9.89434 34.9518 9.89434C34.4824 9.89434 34.0791 9.87383 33.7427 9.83368V4.78355C34.182 4.71264 34.6557 4.67761 35.1663 4.67761C36.0682 4.67761 36.7495 4.87241 37.2086 5.2637C37.7226 5.70541 37.9809 6.33763 37.9809 7.16038Z" fill="white"/>
<path d="M41.7437 7.99433C41.7437 7.65344 41.6699 7.3604 41.5223 7.11605C41.3489 6.82044 41.1018 6.67264 40.78 6.67264C40.4488 6.67264 40.1956 6.82044 40.0223 7.11605C39.8747 7.3604 39.8009 7.65857 39.8009 8.00886C39.8009 8.3506 39.8747 8.64365 40.0223 8.88799C40.2016 9.1836 40.4505 9.33055 40.7723 9.33055C41.0881 9.33055 41.3361 9.18018 41.5146 8.8803C41.6673 8.63083 41.7437 8.33522 41.7437 7.99433ZM42.6009 7.96785C42.6009 8.536 42.4379 9.00333 42.1109 9.369C41.7694 9.74492 41.3155 9.93287 40.75 9.93287C40.2034 9.93287 39.7692 9.7526 39.4448 9.39206C39.1213 9.03152 38.96 8.57701 38.96 8.02851C38.96 7.45438 39.1264 6.98533 39.4602 6.61967C39.7949 6.254 40.2446 6.07117 40.8109 6.07117C41.3567 6.07117 41.7943 6.25144 42.1264 6.61198C42.4422 6.96226 42.6009 7.41422 42.6009 7.96785Z" fill="white"/>
<path d="M48.7966 6.14709L47.6339 9.84904H46.877L46.3948 8.24113C46.2721 7.84044 46.1734 7.44145 46.0962 7.04588H46.0816C46.0103 7.4517 45.9108 7.85069 45.7829 8.24113L45.2707 9.84904H44.5052L43.4111 6.14709H44.2607L44.6811 7.90622C44.7832 8.32315 44.8673 8.71872 44.9343 9.09464H44.9489C45.0098 8.78536 45.1119 8.3915 45.2552 7.91391L45.7829 6.14709H46.4557L46.9611 7.87632C47.0838 8.29752 47.1825 8.70419 47.2589 9.09464H47.2821C47.3387 8.71359 47.4219 8.30777 47.5343 7.87632L47.9857 6.14709H48.7966Z" fill="white"/>
<path d="M53.081 9.84915H52.2546V7.72948C52.2546 7.07589 52.0049 6.74867 51.5055 6.74867C51.2601 6.74867 51.0619 6.83924 50.9083 7.01865C50.7564 7.19807 50.6791 7.40995 50.6791 7.65344V9.84915H49.8528V7.20576C49.8528 6.8811 49.8425 6.52825 49.8228 6.14721H50.5487L50.5873 6.72561H50.6105C50.7066 6.54619 50.8499 6.39668 51.0387 6.27878C51.2627 6.14037 51.5132 6.07117 51.7878 6.07117C52.1354 6.07117 52.4237 6.18309 52.6528 6.40608C52.9386 6.68033 53.081 7.08956 53.081 7.63208V9.84915Z" fill="white"/>
<path d="M55.3597 9.84914H54.5342V4.44873H55.3597V9.84914Z" fill="white"/>
<path d="M59.3682 7.99433C59.3682 7.65344 59.2944 7.3604 59.1459 7.11605C58.9734 6.82044 58.7255 6.67264 58.4054 6.67264C58.0724 6.67264 57.8202 6.82044 57.6477 7.11605C57.5001 7.3604 57.4254 7.65857 57.4254 8.00886C57.4254 8.3506 57.5001 8.64365 57.6477 8.88799C57.8262 9.1836 58.0759 9.33055 58.3977 9.33055C58.7134 9.33055 58.9597 9.18018 59.1382 8.8803C59.2927 8.63083 59.3682 8.33522 59.3682 7.99433ZM60.2263 7.96785C60.2263 8.536 60.0624 9.00333 59.7363 9.369C59.3939 9.74492 58.94 9.93287 58.3745 9.93287C57.8279 9.93287 57.3937 9.7526 57.0702 9.39206C56.7467 9.03152 56.5845 8.57701 56.5845 8.02851C56.5845 7.45438 56.7509 6.98533 57.0856 6.61967C57.4194 6.254 57.8691 6.07117 58.4346 6.07117C58.9812 6.07117 59.4188 6.25144 59.7518 6.61198C60.0675 6.96226 60.2263 7.41422 60.2263 7.96785Z" fill="white"/>
<path d="M63.368 8.57701V8.00544C62.4567 7.99006 62.001 8.23953 62.001 8.75215C62.001 8.94523 62.0525 9.08962 62.1589 9.18616C62.2653 9.28271 62.4009 9.33055 62.5631 9.33055C62.745 9.33055 62.9141 9.27416 63.0677 9.15968C63.2239 9.04519 63.3191 8.8991 63.3543 8.72139C63.3637 8.68124 63.368 8.63254 63.368 8.57701ZM64.2261 9.84915H63.4839L63.4221 9.42197H63.3989C63.1449 9.76286 62.7828 9.93287 62.3134 9.93287C61.9624 9.93287 61.6784 9.82095 61.4647 9.59711C61.2708 9.39463 61.1738 9.14345 61.1738 8.84357C61.1738 8.39161 61.3626 8.04645 61.7436 7.80723C62.1238 7.56886 62.6584 7.45181 63.3466 7.45694V7.38859C63.3466 6.9016 63.09 6.65726 62.5751 6.65726C62.2087 6.65726 61.8852 6.74867 61.6063 6.93151L61.4381 6.3907C61.7831 6.17796 62.2096 6.07117 62.7141 6.07117C63.6855 6.07117 64.1721 6.58122 64.1721 7.60218V8.96574C64.1721 9.33568 64.1909 9.63043 64.2261 9.84915Z" fill="white"/>
<path d="M68.0663 8.28737V7.67052C68.0663 7.56373 68.0586 7.47744 68.0431 7.41165C67.9968 7.21344 67.8972 7.04769 67.7445 6.91271C67.59 6.77857 67.4055 6.71108 67.1919 6.71108C66.8838 6.71108 66.6418 6.8324 66.4642 7.07674C66.2891 7.32023 66.199 7.63208 66.199 8.01312C66.199 8.37879 66.284 8.6761 66.4539 8.90422C66.6324 9.14771 66.8744 9.26988 67.1764 9.26988C67.4476 9.26988 67.6647 9.16822 67.8294 8.96573C67.9882 8.77777 68.0663 8.55137 68.0663 8.28737ZM68.9227 9.84914H68.1899L68.1512 9.25451H68.1281C67.8938 9.70646 67.4948 9.93287 66.9344 9.93287C66.4865 9.93287 66.1132 9.75772 65.818 9.40744C65.522 9.05715 65.3735 8.60263 65.3735 8.04388C65.3735 7.44412 65.534 6.95969 65.8558 6.5889C66.1673 6.24374 66.5491 6.07116 67.0039 6.07116C67.5025 6.07116 67.8526 6.23861 68.0508 6.57352H68.0663V4.44873H68.8935V8.85125C68.8935 9.21179 68.9029 9.54413 68.9227 9.84914Z" fill="white"/>
<path d="M75.1342 7.99433C75.1342 7.65344 75.0604 7.3604 74.9128 7.11605C74.7386 6.82044 74.4923 6.67264 74.1705 6.67264C73.8393 6.67264 73.5861 6.82044 73.4119 7.11605C73.2644 7.3604 73.1906 7.65857 73.1906 8.00886C73.1906 8.3506 73.2644 8.64365 73.4119 8.88799C73.5913 9.1836 73.8401 9.33055 74.1628 9.33055C74.4786 9.33055 74.7266 9.18018 74.9051 8.8803C75.0578 8.63083 75.1342 8.33522 75.1342 7.99433ZM75.9906 7.96785C75.9906 8.536 75.8275 9.00333 75.5014 9.369C75.1591 9.74492 74.706 9.93287 74.1396 9.93287C73.5939 9.93287 73.1597 9.7526 72.8344 9.39206C72.5109 9.03152 72.3496 8.57701 72.3496 8.02851C72.3496 7.45438 72.5161 6.98533 72.8499 6.61967C73.1845 6.254 73.6342 6.07117 74.2014 6.07117C74.7463 6.07117 75.1857 6.25144 75.516 6.61198C75.8318 6.96226 75.9906 7.41422 75.9906 7.96785Z" fill="white"/>
<path d="M80.4351 9.84915H79.6096V7.72948C79.6096 7.07589 79.3599 6.74867 78.8588 6.74867C78.6142 6.74867 78.416 6.83924 78.2632 7.01865C78.1105 7.19807 78.0333 7.40995 78.0333 7.65344V9.84915H77.2069V7.20576C77.2069 6.8811 77.1975 6.52825 77.1777 6.14721H77.9028L77.9415 6.72561H77.9646C78.0616 6.54619 78.2049 6.39668 78.3928 6.27878C78.6176 6.14037 78.8665 6.07117 79.1428 6.07117C79.4895 6.07117 79.7769 6.18309 80.0069 6.40608C80.2935 6.68033 80.4351 7.08956 80.4351 7.63208V9.84915Z" fill="white"/>
<path d="M85.9961 6.76404H85.0865V8.56162C85.0865 9.0187 85.2478 9.24767 85.5679 9.24767C85.7164 9.24767 85.8391 9.23485 85.9369 9.20922L85.9584 9.83376C85.7945 9.89442 85.5808 9.92518 85.3156 9.92518C84.9896 9.92518 84.7347 9.82607 84.5519 9.62786C84.3666 9.42965 84.2756 9.0973 84.2756 8.62997V6.76404H83.7324V6.1472H84.2756V5.46969L85.0865 5.2262V6.1472H85.9961V6.76404Z" fill="white"/>
<path d="M90.3727 9.84914H89.5455V7.744C89.5455 7.08016 89.2958 6.74867 88.7973 6.74867C88.4137 6.74867 88.152 6.94175 88.0086 7.32622C87.9838 7.40738 87.97 7.50649 87.97 7.62268V9.84914H87.1445V4.44873H87.97V6.67946H87.9855C88.2455 6.2745 88.6188 6.07116 89.1019 6.07116C89.4443 6.07116 89.7274 6.18308 89.9523 6.40607C90.2329 6.68545 90.3727 7.09896 90.3727 7.64745V9.84914Z" fill="white"/>
<path d="M94.0967 7.60975C94.1027 7.36625 94.0495 7.15523 93.9371 6.97752C93.7937 6.74855 93.5749 6.63492 93.2789 6.63492C93.0094 6.63492 92.7889 6.74599 92.6216 6.96983C92.4843 7.14754 92.4028 7.36113 92.3762 7.60975H94.0967ZM94.8853 7.82248C94.8853 7.97029 94.875 8.09417 94.8544 8.19584H92.3762C92.3873 8.5615 92.5057 8.84088 92.7348 9.03396C92.9451 9.20655 93.2162 9.29284 93.5475 9.29284C93.9139 9.29284 94.2477 9.23474 94.5497 9.11769L94.6793 9.68926C94.3266 9.84133 93.9122 9.91737 93.4316 9.91737C92.8558 9.91737 92.4028 9.74821 92.0741 9.41074C91.7446 9.07327 91.5815 8.6196 91.5815 8.05145C91.5815 7.4927 91.7343 7.02793 92.0406 6.65713C92.3616 6.26157 92.7941 6.06335 93.3407 6.06335C93.8753 6.06335 94.282 6.26157 94.5558 6.65713C94.7763 6.97239 94.8853 7.36113 94.8853 7.82248Z" fill="white"/>
</svg>
