<svg width="400" height="400" viewBox="0 0 661 467" fill="none" xmlns="http://www.w3.org/2000/svg">
<path d="M157.965 339.638C157.953 338.094 152.925 336.436 152.925 336.436L115.516 321.817C113.458 320.863 111.244 320.289 108.981 320.121C106.939 320.149 104.932 320.649 103.115 321.582L57.7549 335.917C57.7549 335.917 51.6884 337.929 51.4644 339.786C51.2405 341.644 56.8558 343.365 56.8558 343.365L97.4535 357.951C99.4641 358.915 101.672 359.397 103.901 359.359C106.661 359.149 109.379 358.555 111.974 357.594L152.974 342.615C152.974 342.615 157.977 341.182 157.965 339.638Z" fill="#689FFE"/>
<g filter="url(#filter0_d_1343_3113)">
<path d="M159.005 345.588C158.276 344.922 156.971 345.588 156.971 345.588L111.037 361.064C109.66 361.677 108.437 362.591 107.458 363.739C106.75 364.859 106.401 366.169 106.458 367.493V434.403C106.458 434.403 106.405 436.687 107.708 437.262C109.011 437.837 111.668 436.695 111.668 436.695L156.69 420.599C157.611 420.277 158.417 419.689 159.005 418.911C159.531 417.959 159.833 416.9 159.887 415.814V348.253C159.887 348.253 159.732 346.25 159.005 345.588Z" fill="url(#paint0_linear_1343_3113)"/>
</g>
<g filter="url(#filter1_d_1343_3113)">
<path d="M48.3469 345.588C49.0759 344.922 50.3816 345.588 50.3816 345.588L96.3128 361.064C97.6914 361.677 98.9151 362.591 99.8939 363.739C100.602 364.86 100.95 366.17 100.893 367.495V434.403C100.893 434.403 100.945 436.686 99.6422 437.259C98.3394 437.832 95.6825 436.692 95.6825 436.692L50.6635 420.599C49.7422 420.277 48.9366 419.689 48.348 418.911C47.8221 417.96 47.5202 416.903 47.465 415.818V348.253C47.465 348.253 47.618 346.25 48.3469 345.588Z" fill="url(#paint1_linear_1343_3113)"/>
</g>
<g filter="url(#filter2_d_1343_3113)">
<path d="M187.305 345.587C188.034 344.92 189.34 345.587 189.34 345.587L235.271 361.063C236.65 361.676 237.873 362.59 238.852 363.738C239.56 364.859 239.908 366.169 239.851 367.493V434.401C239.851 434.401 239.903 436.685 238.6 437.258C237.298 437.831 234.641 436.691 234.641 436.691L189.622 420.598C188.7 420.275 187.895 419.688 187.306 418.909C186.78 417.959 186.478 416.901 186.423 415.816V348.252C186.423 348.252 186.576 346.248 187.305 345.587Z" fill="url(#paint2_linear_1343_3113)"/>
</g>
<g filter="url(#filter3_d_1343_3113)">
<path d="M297.964 345.587C297.235 344.92 295.929 345.587 295.929 345.587L249.996 361.063C248.618 361.676 247.395 362.59 246.417 363.738C245.709 364.858 245.36 366.167 245.416 367.491V434.401C245.416 434.401 245.364 436.685 246.667 437.261C247.969 437.836 250.626 436.694 250.626 436.694L295.648 420.597C296.57 420.275 297.375 419.688 297.964 418.909C298.49 417.957 298.792 416.898 298.846 415.812V348.252C298.846 348.252 298.691 346.248 297.964 345.587Z" fill="url(#paint3_linear_1343_3113)"/>
</g>
<path d="M296.923 259.028C296.911 257.484 291.883 255.826 291.883 255.826L254.474 241.207C252.416 240.253 250.202 239.678 247.939 239.511C245.897 239.539 243.89 240.039 242.073 240.972L196.713 255.307C196.713 255.307 190.647 257.319 190.423 259.176C190.199 261.033 195.814 262.755 195.814 262.755L236.412 277.341C238.422 278.305 240.63 278.787 242.859 278.748C245.619 278.539 248.337 277.944 250.933 276.983L291.932 262.004C291.932 262.004 296.935 260.572 296.923 259.028Z" fill="#689FFE"/>
<path d="M297.966 264.977C297.237 264.311 295.931 264.977 295.931 264.977L249.998 280.454C248.62 281.067 247.397 281.981 246.419 283.129C245.711 284.248 245.362 285.558 245.418 286.882V353.792C245.418 353.792 245.366 356.075 246.669 356.651C247.971 357.227 250.628 356.085 250.628 356.085L295.65 339.988C296.572 339.666 297.377 339.079 297.966 338.3C298.492 337.348 298.794 336.289 298.848 335.203V267.642C298.848 267.642 298.693 265.639 297.966 264.977Z" fill="url(#paint4_linear_1343_3113)"/>
<path d="M187.305 264.977C188.034 264.311 189.34 264.977 189.34 264.977L235.271 280.454C236.65 281.066 237.873 281.98 238.852 283.129C239.56 284.249 239.908 285.559 239.851 286.884V353.792C239.851 353.792 239.903 356.075 238.6 356.648C237.298 357.221 234.641 356.081 234.641 356.081L189.622 339.988C188.7 339.666 187.895 339.079 187.306 338.3C186.78 337.349 186.478 336.292 186.423 335.207V267.642C186.423 267.642 186.576 265.639 187.305 264.977Z" fill="url(#paint5_linear_1343_3113)"/>
<g filter="url(#filter4_d_1343_3113)">
<path d="M436.922 345.587C436.193 344.92 434.887 345.587 434.887 345.587L388.954 361.063C387.576 361.676 386.353 362.59 385.375 363.738C384.667 364.858 384.318 366.167 384.374 367.491V434.401C384.374 434.401 384.322 436.686 385.625 437.261C386.927 437.835 389.584 436.694 389.584 436.694L434.606 420.597C435.528 420.275 436.333 419.688 436.922 418.909C437.448 417.957 437.75 416.898 437.804 415.812V348.252C437.804 348.252 437.649 346.248 436.922 345.587Z" fill="url(#paint6_linear_1343_3113)"/>
</g>
<g filter="url(#filter5_d_1343_3113)">
<path d="M326.263 345.587C326.992 344.92 328.298 345.587 328.298 345.587L374.229 361.063C375.607 361.676 376.831 362.59 377.81 363.738C378.518 364.859 378.866 366.169 378.809 367.493V434.401C378.809 434.401 378.861 436.685 377.558 437.258C376.255 437.831 373.599 436.691 373.599 436.691L328.58 420.598C327.658 420.275 326.853 419.688 326.264 418.909C325.738 417.959 325.436 416.901 325.381 415.816V348.252C325.381 348.252 325.534 346.248 326.263 345.587Z" fill="url(#paint7_linear_1343_3113)"/>
</g>
<path d="M326.263 264.975C326.992 264.309 328.298 264.975 328.298 264.975L374.229 280.452C375.608 281.064 376.831 281.978 377.81 283.127C378.518 284.247 378.866 285.558 378.809 286.882V353.79C378.809 353.79 378.861 356.073 377.558 356.646C376.256 357.219 373.599 356.079 373.599 356.079L328.58 339.986C327.658 339.664 326.853 339.076 326.264 338.298C325.738 337.347 325.436 336.29 325.381 335.205V267.64C325.381 267.64 325.534 265.637 326.263 264.975Z" fill="url(#paint8_linear_1343_3113)"/>
<path d="M436.924 264.975C436.195 264.309 434.889 264.975 434.889 264.975L388.956 280.452C387.578 281.065 386.355 281.979 385.377 283.127C384.669 284.246 384.319 285.556 384.376 286.88V353.79C384.376 353.79 384.324 356.073 385.626 356.649C386.929 357.225 389.586 356.082 389.586 356.082L434.608 339.986C435.529 339.664 436.335 339.076 436.924 338.298C437.45 337.346 437.751 336.287 437.806 335.201V267.64C437.806 267.64 437.651 265.637 436.924 264.975Z" fill="url(#paint9_linear_1343_3113)"/>
<path d="M435.881 178.941C435.869 177.397 430.841 175.739 430.841 175.739L393.432 161.12C391.374 160.166 389.16 159.592 386.897 159.424C384.855 159.452 382.848 159.952 381.031 160.885L335.671 175.22C335.671 175.22 329.605 177.232 329.381 179.089C329.157 180.946 334.772 182.668 334.772 182.668L375.37 197.254C377.38 198.218 379.588 198.7 381.817 198.662C384.577 198.452 387.295 197.858 389.891 196.896L430.89 181.917C430.89 181.917 435.894 180.485 435.881 178.941Z" fill="#689FFE"/>
<path d="M436.924 184.89C436.195 184.223 434.889 184.89 434.889 184.89L388.956 200.366C387.578 200.979 386.355 201.893 385.377 203.041C384.669 204.161 384.319 205.471 384.376 206.794V273.705C384.376 273.705 384.324 275.988 385.626 276.564C386.929 277.14 389.586 275.997 389.586 275.997L434.608 259.901C435.529 259.579 436.335 258.991 436.924 258.212C437.45 257.261 437.751 256.202 437.806 255.116V187.555C437.806 187.555 437.651 185.551 436.924 184.89Z" fill="url(#paint10_linear_1343_3113)"/>
<path d="M326.263 184.89C326.992 184.223 328.298 184.89 328.298 184.89L374.229 200.366C375.608 200.979 376.831 201.893 377.81 203.041C378.518 204.162 378.866 205.472 378.809 206.796V273.705C378.809 273.705 378.861 275.988 377.558 276.561C376.256 277.134 373.599 275.994 373.599 275.994L328.58 259.901C327.658 259.578 326.853 258.991 326.264 258.212C325.738 257.262 325.436 256.204 325.381 255.12V187.555C325.381 187.555 325.534 185.551 326.263 184.89Z" fill="url(#paint11_linear_1343_3113)"/>
<path d="M63.2865 168.293C63.2865 168.293 48.9806 167.812 38.799 171.862C28.6175 175.913 23.6712 181.054 18.5589 193.063C13.4467 205.071 18.3492 219.899 18.3492 219.899C18.3492 219.899 21.5168 227.849 30.7014 238.06C39.886 248.27 55.0875 260.74 55.0875 260.74C55.0875 260.74 61.2978 267.177 64.3658 273.931C66.2459 278.258 67.265 282.966 67.3581 287.752C67.3581 287.752 61.4722 286.757 58.5012 289.043C55.5302 291.329 55.4725 296.898 55.4725 296.898C56.3188 300.18 56.7285 303.576 56.6892 306.986C56.4878 310.051 55.772 313.053 54.5766 315.849L47.8908 321.956C51.4166 322.744 55.0934 322.208 58.3106 320.438C63.5191 317.471 65.8552 316.486 68.7248 310.08C71.5943 303.674 70.519 295.655 70.519 295.655C70.519 295.655 69.8971 281.892 67.23 273.512C65.7517 268.639 62.925 264.376 59.1274 261.291L36.5146 238.637C36.5146 238.637 28.0189 227.542 24.6013 218.987C21.1836 210.432 22.8437 204.415 22.8437 204.415C22.8437 204.415 23.6837 192.696 33.6935 186.679C43.7032 180.663 62.8825 180.333 62.8825 180.333L63.2865 168.293Z" fill="#286AB4"/>
<path d="M125.66 142.288C125.66 142.288 111.499 142.154 99.6634 147.952C87.8278 153.749 85.0683 157.371 78.3176 165.463C71.5668 173.556 72.704 198.151 72.704 198.151L77.901 223.201C77.901 223.201 81.8933 236.942 80.7264 246.318C80.0032 251.933 77.3266 257.062 73.2295 260.684L92.0287 321.331L80.0704 264.248L88.6162 249.729C89.7679 243.51 89.9508 237.137 89.1573 230.867C87.8586 220.24 83.4213 207.223 83.4213 207.223C83.4213 207.223 80.5607 194.735 81.6444 183.948C82.4757 177.136 85.0043 170.677 88.9663 165.245C88.9663 165.245 92.8306 158.285 102.004 152.542C111.177 146.799 125.66 142.288 125.66 142.288Z" fill="#286AB4"/>
<path d="M125.402 137.809C132.153 136.93 138.747 135.172 144.995 132.587C154.699 128.438 164.22 121.21 164.22 121.21C164.22 121.21 170.876 115.569 180.704 102.404C190.532 89.2397 203.536 68.5496 203.536 68.5496L218.759 48.8303C222.756 43.5359 228.041 39.2103 234.171 36.2165C244.003 31.6053 245.977 31.4479 258.089 30.385C270.202 29.3221 282.616 31.9652 282.616 31.9652C295.728 35.3733 308.439 39.9973 320.56 45.769C340.357 55.2482 361.787 69.8666 361.787 69.8666C361.787 69.8666 357.157 60.8197 339.21 48.7972C321.264 36.7746 289.997 21.7777 289.997 21.7777C289.997 21.7777 257.439 11.3081 232.248 21.8423C207.057 32.3764 189.236 63.9138 189.236 63.9138L167.623 104.034C163.694 111.151 158.352 117.504 151.886 122.747C141.33 131.191 125.402 137.809 125.402 137.809Z" fill="#286AB4"/>
<path d="M137.599 186.516C140.618 189.503 142.943 193.165 144.398 197.227C147.116 204.375 148.382 207.209 148.474 215.105C148.488 219.936 147.204 224.683 144.766 228.81L131.51 241.61C131.51 241.61 117.471 250.377 109.53 257.151C101.59 263.925 102.034 264.569 98.819 271.425C95.6042 278.282 98.0338 292.555 101.022 298.511C103.587 303.26 106.688 307.673 110.26 311.655C110.258 315.455 108.916 319.129 106.488 321.983C102.446 326.604 90.1753 330.696 94.0957 330.14C98.0161 329.585 102.83 331.068 110.135 327.869C117.439 324.669 123.311 317.341 123.311 317.341C119.68 316.544 116.308 314.803 113.509 312.28C108.612 307.984 105.088 299.492 105.088 299.492C105.088 299.492 102.388 296.793 102.521 290.675C102.653 284.557 102.672 278.604 107.89 273.249C113.108 267.895 122.535 262.466 122.535 262.466C122.535 262.466 134.998 256.274 143.496 247.444C151.994 238.613 152.719 236.817 155.414 227.302C156.971 221.356 156.572 215.049 154.28 209.386C153.059 204.814 151.071 200.506 148.406 196.66C144.237 190.942 137.599 186.516 137.599 186.516Z" fill="#286AB4"/>
<path d="M223.125 183.17C223.125 183.17 220.832 194.3 212.25 200.817C203.669 207.335 197.322 204.581 187.376 208.656C177.43 212.732 178.248 213.031 172.461 217.114C166.674 221.198 165.651 225.571 165.651 225.571C165.651 225.571 168.487 221.327 175.673 218.513C182.859 215.7 194.367 214.306 194.367 214.306C199.663 214.899 205.039 214.21 210.001 212.302C217.801 209.135 225.59 201.635 225.59 201.635L223.125 183.17Z" fill="#286AB4"/>
<path d="M160.148 237.405C159.908 237.714 152.853 248.849 152.853 248.849C156.813 247.312 161.205 247.314 165.148 248.853C171.81 251.431 176.948 254.136 177.726 260.041C178.504 265.946 168.254 272.471 168.254 272.471C168.254 272.471 172.369 272.557 178.435 269.159C184.502 265.761 192.516 258.875 192.516 258.875C192.516 258.875 187.984 260.127 179.889 254.759C171.795 249.392 160.148 237.405 160.148 237.405Z" fill="#286AB4"/>
<path d="M249.077 91.5461C249.077 91.5461 239.631 91.8004 232.76 95.4005C225.89 99.0005 224.723 99.5329 221.583 105.951C218.444 112.369 219.001 121.826 219.001 121.826L228.125 167.561C228.125 167.561 231.739 186.451 232.954 197.172C234.169 207.893 232.116 210.247 232.116 210.247L245.729 257.57L237.947 209.382C237.947 209.382 239.453 207.233 236.799 185.619C234.146 164.004 227.335 122.926 227.335 122.926C226.892 119.157 227.16 115.32 228.123 111.661C229.725 105.901 234.444 98.8805 234.444 98.8805L249.077 91.5461Z" fill="#286AB4"/>
<path d="M274.747 146.495L267.879 153.963C264.017 158.028 261.493 163.341 260.697 169.085C259.641 178.273 263.094 184.235 262.557 193.345C262.02 202.456 258.551 205.531 258.551 205.531C256.717 211.281 255.597 217.264 255.22 223.324C254.904 232.07 256.158 233.693 258.351 240.553C260.545 247.412 262.999 246.913 263.064 251.847C263.128 256.782 258.609 260.294 258.609 260.294L250.627 265.832C250.627 265.832 253.073 267.091 259.126 264.592C265.179 262.093 274.839 255.833 274.839 255.833C274.839 255.833 268.227 252.947 265.132 248.5C262.037 244.054 260.123 232.168 260.844 224.595C261.565 217.021 265.351 207.777 265.351 207.777C267.435 202.453 268.488 196.732 268.447 190.965C268.513 180.876 265.885 180.309 266.154 171.902C266.315 166.852 267.462 161.889 269.52 157.338L274.747 146.495Z" fill="#286AB4"/>
<path d="M269.104 207.771L271.527 210.582L282.818 212.754C280.8 215.418 278.412 217.789 275.727 219.794C272.678 221.879 269.404 223.619 265.965 224.979L272.316 216.564L272.777 212.997L267.511 209.835L269.104 207.771Z" fill="#286AB4"/>
<path d="M300.734 62.2245C300.734 62.2245 310.486 72.6774 314.947 83.4113C319.408 94.1453 320.201 108.376 312.437 120.948C304.672 133.519 283.719 160.758 281.137 167.873C279.381 173.092 278.061 178.458 277.191 183.91L284.361 169.112C284.361 169.112 297.196 155.581 306.362 144.462C311.611 138.153 316.506 131.531 321.024 124.632C321.024 124.632 326.219 116.761 326.849 107.759C327.479 98.7579 323.19 84.3609 317.488 77.7652C311.785 71.1695 300.734 62.2245 300.734 62.2245Z" fill="#286AB4"/>
<path d="M367.782 98.1095C362.746 102.93 358.647 108.639 355.694 114.944C350.999 125.17 346.835 140.939 345.558 142.444C342.077 146.55 336.855 145.484 336.855 145.484L322.068 138.966L333.825 150.708C336.474 152.767 339.769 153.829 343.135 153.705C349.07 153.639 357.567 150.447 357.567 150.447L355.97 126.95L367.782 98.1095Z" fill="#286AB4"/>
<path d="M367.926 77.7328C367.926 77.7328 363.809 82.4765 365.382 87.1338C366.954 91.7911 374.214 96.367 374.214 96.367C374.214 96.367 375.759 91.2324 385.636 87.9992C395.513 84.7659 413.719 83.4361 413.719 83.4361C413.719 83.4361 402.921 76.2244 391.473 74.8031C380.024 73.3818 367.926 77.7328 367.926 77.7328Z" fill="#286AB4"/>
<path d="M509.873 343.869C509.584 343.575 510.222 342.312 510.222 342.312L514.526 332.482C514.735 331.913 515.045 331.386 515.441 330.927C515.832 330.546 516.306 330.261 516.826 330.094L528.1 324.236C528.1 324.236 529.625 323.469 530.02 323.778C530.415 324.087 529.68 325.469 529.68 325.469L524.765 335.896C524.568 336.458 524.242 336.967 523.814 337.381C523.254 337.863 522.629 338.266 521.958 338.576L511.38 343.489C511.38 343.489 510.163 344.163 509.873 343.869Z" fill="url(#paint12_linear_1343_3113)"/>
<path d="M510.803 345.185C510.815 344.921 511.187 344.8 511.187 344.8L522.789 339.046C523.165 338.902 523.569 338.843 523.971 338.875C524.318 338.954 524.632 339.136 524.872 339.399L537.512 352.039C537.512 352.039 537.953 352.46 537.815 352.815C537.677 353.169 536.96 353.456 536.96 353.456L525.413 358.919C525.178 359.033 524.915 359.074 524.657 359.038C524.377 358.958 524.12 358.815 523.905 358.62L511.14 345.855C510.969 345.666 510.852 345.435 510.803 345.185V345.185Z" fill="url(#paint13_linear_1343_3113)"/>
<path d="M531.71 324.278C531.446 324.29 531.325 324.663 531.325 324.663L525.572 336.265C525.427 336.641 525.369 337.045 525.401 337.447C525.479 337.794 525.662 338.108 525.924 338.347L538.564 350.987C538.564 350.987 538.985 351.429 539.34 351.291C539.695 351.152 539.981 350.436 539.981 350.436L545.447 338.889C545.56 338.654 545.601 338.391 545.566 338.132C545.485 337.853 545.342 337.596 545.147 337.381L532.38 324.614C532.192 324.443 531.96 324.327 531.71 324.278V324.278Z" fill="url(#paint14_linear_1343_3113)"/>
<path d="M607.511 383.537C607.738 383.163 609.212 383.483 609.212 383.483L620.522 385.299C621.166 385.363 621.793 385.541 622.373 385.825C622.871 386.126 623.292 386.536 623.604 387.024L632.675 397.023C632.675 397.023 633.873 398.386 633.661 398.869C633.448 399.352 631.818 398.964 631.818 398.964L619.729 396.681C619.096 396.627 618.484 396.428 617.941 396.098C617.293 395.651 616.711 395.116 616.213 394.51L608.309 384.979C608.309 384.979 607.284 383.911 607.511 383.537Z" fill="url(#paint15_linear_1343_3113)"/>
<path d="M606.555 384.924C606.828 384.867 607.049 385.22 607.049 385.22L615.973 395.707C616.22 396.058 616.385 396.46 616.457 396.884C616.467 397.261 616.362 397.632 616.156 397.948L606.486 414.317C606.486 414.317 606.169 414.883 605.769 414.833C605.37 414.783 604.889 414.117 604.889 414.117L596.272 403.611C596.095 403.398 595.984 403.137 595.954 402.86C595.965 402.551 596.046 402.249 596.19 401.977L605.955 385.447C606.104 385.221 606.312 385.04 606.555 384.924V384.924Z" fill="url(#paint16_linear_1343_3113)"/>
<path d="M633.66 400.86C633.579 400.591 633.166 400.563 633.166 400.563L619.769 397.652C619.346 397.601 618.916 397.646 618.512 397.784C618.177 397.954 617.902 398.223 617.723 398.555L608.053 414.924C608.053 414.924 607.71 415.475 607.944 415.805C608.179 416.136 608.988 416.244 608.988 416.244L622.254 418.873C622.524 418.929 622.805 418.903 623.061 418.798C623.326 418.642 623.553 418.427 623.723 418.169L633.488 401.64C633.614 401.401 633.674 401.131 633.66 400.86V400.86Z" fill="url(#paint17_linear_1343_3113)"/>
<g opacity="0.54" filter="url(#filter6_f_1343_3113)">
<path d="M554.686 369.361C554.664 368.887 553.994 368.67 553.994 368.67L533.132 358.324C532.456 358.064 531.729 357.958 531.006 358.016C530.385 358.155 529.82 358.481 529.389 358.95L506.658 381.681C506.658 381.681 505.866 382.441 506.115 383.078C506.363 383.716 507.652 384.231 507.652 384.231L528.414 394.059C528.837 394.263 529.311 394.337 529.776 394.272C530.277 394.127 530.74 393.87 531.127 393.519L554.08 370.566C554.387 370.227 554.597 369.81 554.686 369.361V369.361Z" fill="#888C91"/>
</g>
<g opacity="0.54" filter="url(#filter7_f_1343_3113)">
<path d="M644.297 428.073C644.279 427.653 643.684 427.46 643.684 427.46L625.188 418.287C624.588 418.056 623.944 417.963 623.304 418.014C622.753 418.138 622.253 418.428 621.871 418.844L601.718 438.997C601.718 438.997 601.015 439.671 601.235 440.235C601.455 440.8 602.599 441.258 602.599 441.258L621.006 449.97C621.38 450.15 621.8 450.216 622.212 450.159C622.657 450.031 623.067 449.802 623.41 449.491L643.76 429.142C644.033 428.841 644.219 428.472 644.297 428.073V428.073Z" fill="#888C91"/>
</g>
<path d="M607.511 383.535C607.738 383.161 609.213 383.482 609.213 383.482L620.522 385.298C621.166 385.361 621.793 385.54 622.373 385.824C622.871 386.124 623.293 386.534 623.604 387.023L632.675 397.022C632.675 397.022 633.873 398.384 633.661 398.867C633.448 399.35 631.818 398.963 631.818 398.963L619.73 396.68C619.096 396.626 618.484 396.426 617.941 396.097C617.293 395.649 616.712 395.115 616.213 394.508L608.309 384.978C608.309 384.978 607.284 383.909 607.511 383.535Z" fill="url(#paint18_linear_1343_3113)"/>
<path d="M606.555 384.923C606.828 384.866 607.049 385.219 607.049 385.219L615.973 395.706C616.22 396.057 616.385 396.459 616.457 396.883C616.466 397.26 616.362 397.631 616.156 397.947L606.486 414.316C606.486 414.316 606.169 414.882 605.769 414.832C605.37 414.782 604.889 414.116 604.889 414.116L596.272 403.61C596.095 403.397 595.984 403.136 595.954 402.859C595.965 402.55 596.046 402.248 596.19 401.976L605.955 385.446C606.104 385.22 606.312 385.039 606.555 384.923V384.923Z" fill="url(#paint19_linear_1343_3113)"/>
<path d="M633.66 400.859C633.579 400.59 633.166 400.562 633.166 400.562L619.769 397.65C619.346 397.599 618.916 397.645 618.513 397.783C618.178 397.952 617.902 398.221 617.723 398.553L608.053 414.922C608.053 414.922 607.71 415.473 607.945 415.804C608.179 416.134 608.988 416.243 608.988 416.243L622.254 418.872C622.525 418.927 622.805 418.901 623.061 418.796C623.326 418.64 623.553 418.425 623.723 418.168L633.488 401.638C633.614 401.399 633.674 401.129 633.66 400.859V400.859Z" fill="url(#paint20_linear_1343_3113)"/>
<defs>
<filter id="filter0_d_1343_3113" x="86.4517" y="331.292" width="93.4355" height="132.132" filterUnits="userSpaceOnUse" color-interpolation-filters="sRGB">
<feFlood flood-opacity="0" result="BackgroundImageFix"/>
<feColorMatrix in="SourceAlpha" type="matrix" values="0 0 0 0 0 0 0 0 0 0 0 0 0 0 0 0 0 0 127 0" result="hardAlpha"/>
<feOffset dy="6"/>
<feGaussianBlur stdDeviation="10"/>
<feColorMatrix type="matrix" values="0 0 0 0 0 0 0 0 0 0 0 0 0 0 0 0 0 0 0.78 0"/>
<feBlend mode="normal" in2="BackgroundImageFix" result="effect1_dropShadow_1343_3113"/>
<feBlend mode="normal" in="SourceGraphic" in2="effect1_dropShadow_1343_3113" result="shape"/>
</filter>
<filter id="filter1_d_1343_3113" x="27.465" y="331.292" width="93.4337" height="132.128" filterUnits="userSpaceOnUse" color-interpolation-filters="sRGB">
<feFlood flood-opacity="0" result="BackgroundImageFix"/>
<feColorMatrix in="SourceAlpha" type="matrix" values="0 0 0 0 0 0 0 0 0 0 0 0 0 0 0 0 0 0 127 0" result="hardAlpha"/>
<feOffset dy="6"/>
<feGaussianBlur stdDeviation="10"/>
<feColorMatrix type="matrix" values="0 0 0 0 0 0 0 0 0 0 0 0 0 0 0 0 0 0 0.78 0"/>
<feBlend mode="normal" in2="BackgroundImageFix" result="effect1_dropShadow_1343_3113"/>
<feBlend mode="normal" in="SourceGraphic" in2="effect1_dropShadow_1343_3113" result="shape"/>
</filter>
<filter id="filter2_d_1343_3113" x="166.423" y="331.291" width="93.4337" height="132.128" filterUnits="userSpaceOnUse" color-interpolation-filters="sRGB">
<feFlood flood-opacity="0" result="BackgroundImageFix"/>
<feColorMatrix in="SourceAlpha" type="matrix" values="0 0 0 0 0 0 0 0 0 0 0 0 0 0 0 0 0 0 127 0" result="hardAlpha"/>
<feOffset dy="6"/>
<feGaussianBlur stdDeviation="10"/>
<feColorMatrix type="matrix" values="0 0 0 0 0 0 0 0 0 0 0 0 0 0 0 0 0 0 0.78 0"/>
<feBlend mode="normal" in2="BackgroundImageFix" result="effect1_dropShadow_1343_3113"/>
<feBlend mode="normal" in="SourceGraphic" in2="effect1_dropShadow_1343_3113" result="shape"/>
</filter>
<filter id="filter3_d_1343_3113" x="225.41" y="331.291" width="93.4355" height="132.132" filterUnits="userSpaceOnUse" color-interpolation-filters="sRGB">
<feFlood flood-opacity="0" result="BackgroundImageFix"/>
<feColorMatrix in="SourceAlpha" type="matrix" values="0 0 0 0 0 0 0 0 0 0 0 0 0 0 0 0 0 0 127 0" result="hardAlpha"/>
<feOffset dy="6"/>
<feGaussianBlur stdDeviation="10"/>
<feColorMatrix type="matrix" values="0 0 0 0 0 0 0 0 0 0 0 0 0 0 0 0 0 0 0.78 0"/>
<feBlend mode="normal" in2="BackgroundImageFix" result="effect1_dropShadow_1343_3113"/>
<feBlend mode="normal" in="SourceGraphic" in2="effect1_dropShadow_1343_3113" result="shape"/>
</filter>
<filter id="filter4_d_1343_3113" x="364.368" y="331.291" width="93.4355" height="132.132" filterUnits="userSpaceOnUse" color-interpolation-filters="sRGB">
<feFlood flood-opacity="0" result="BackgroundImageFix"/>
<feColorMatrix in="SourceAlpha" type="matrix" values="0 0 0 0 0 0 0 0 0 0 0 0 0 0 0 0 0 0 127 0" result="hardAlpha"/>
<feOffset dy="6"/>
<feGaussianBlur stdDeviation="10"/>
<feColorMatrix type="matrix" values="0 0 0 0 0 0 0 0 0 0 0 0 0 0 0 0 0 0 0.78 0"/>
<feBlend mode="normal" in2="BackgroundImageFix" result="effect1_dropShadow_1343_3113"/>
<feBlend mode="normal" in="SourceGraphic" in2="effect1_dropShadow_1343_3113" result="shape"/>
</filter>
<filter id="filter5_d_1343_3113" x="305.381" y="331.291" width="93.4337" height="132.128" filterUnits="userSpaceOnUse" color-interpolation-filters="sRGB">
<feFlood flood-opacity="0" result="BackgroundImageFix"/>
<feColorMatrix in="SourceAlpha" type="matrix" values="0 0 0 0 0 0 0 0 0 0 0 0 0 0 0 0 0 0 127 0" result="hardAlpha"/>
<feOffset dy="6"/>
<feGaussianBlur stdDeviation="10"/>
<feColorMatrix type="matrix" values="0 0 0 0 0 0 0 0 0 0 0 0 0 0 0 0 0 0 0.78 0"/>
<feBlend mode="normal" in2="BackgroundImageFix" result="effect1_dropShadow_1343_3113"/>
<feBlend mode="normal" in="SourceGraphic" in2="effect1_dropShadow_1343_3113" result="shape"/>
</filter>
<filter id="filter6_f_1343_3113" x="490.067" y="342.001" width="80.619" height="68.2939" filterUnits="userSpaceOnUse" color-interpolation-filters="sRGB">
<feFlood flood-opacity="0" result="BackgroundImageFix"/>
<feBlend mode="normal" in="SourceGraphic" in2="BackgroundImageFix" result="shape"/>
<feGaussianBlur stdDeviation="8" result="effect1_foregroundBlur_1343_3113"/>
</filter>
<filter id="filter7_f_1343_3113" x="585.192" y="402" width="75.1053" height="64.1787" filterUnits="userSpaceOnUse" color-interpolation-filters="sRGB">
<feFlood flood-opacity="0" result="BackgroundImageFix"/>
<feBlend mode="normal" in="SourceGraphic" in2="BackgroundImageFix" result="shape"/>
<feGaussianBlur stdDeviation="8" result="effect1_foregroundBlur_1343_3113"/>
</filter>
<linearGradient id="paint0_linear_1343_3113" x1="133.169" y1="378.92" x2="133.169" y2="437.424" gradientUnits="userSpaceOnUse">
<stop stop-color="#3996FF"/>
<stop offset="1" stop-color="#002044"/>
</linearGradient>
<linearGradient id="paint1_linear_1343_3113" x1="74.1819" y1="386.289" x2="74.1819" y2="437.42" gradientUnits="userSpaceOnUse">
<stop stop-color="#0346FF"/>
<stop offset="1" stop-color="#002044"/>
</linearGradient>
<linearGradient id="paint2_linear_1343_3113" x1="213.14" y1="378.917" x2="213.14" y2="437.419" gradientUnits="userSpaceOnUse">
<stop stop-color="#3996FF"/>
<stop offset="1" stop-color="#002044"/>
</linearGradient>
<linearGradient id="paint3_linear_1343_3113" x1="272.128" y1="386.289" x2="272.128" y2="437.423" gradientUnits="userSpaceOnUse">
<stop stop-color="#0346FF"/>
<stop offset="1" stop-color="#002044"/>
</linearGradient>
<linearGradient id="paint4_linear_1343_3113" x1="272.13" y1="298.309" x2="272.13" y2="356.814" gradientUnits="userSpaceOnUse">
<stop stop-color="#3996FF"/>
<stop offset="1" stop-color="#002044"/>
</linearGradient>
<linearGradient id="paint5_linear_1343_3113" x1="213.14" y1="305.678" x2="213.14" y2="356.809" gradientUnits="userSpaceOnUse">
<stop stop-color="#0346FF"/>
<stop offset="1" stop-color="#002044"/>
</linearGradient>
<linearGradient id="paint6_linear_1343_3113" x1="411.086" y1="378.919" x2="411.086" y2="437.422" gradientUnits="userSpaceOnUse">
<stop stop-color="#3996FF"/>
<stop offset="1" stop-color="#002044"/>
</linearGradient>
<linearGradient id="paint7_linear_1343_3113" x1="352.098" y1="386.288" x2="352.098" y2="437.419" gradientUnits="userSpaceOnUse">
<stop stop-color="#0346FF"/>
<stop offset="1" stop-color="#002044"/>
</linearGradient>
<linearGradient id="paint8_linear_1343_3113" x1="352.098" y1="298.306" x2="352.098" y2="356.807" gradientUnits="userSpaceOnUse">
<stop stop-color="#3996FF"/>
<stop offset="1" stop-color="#002044"/>
</linearGradient>
<linearGradient id="paint9_linear_1343_3113" x1="411.088" y1="305.678" x2="411.088" y2="356.811" gradientUnits="userSpaceOnUse">
<stop stop-color="#0346FF"/>
<stop offset="1" stop-color="#002044"/>
</linearGradient>
<linearGradient id="paint10_linear_1343_3113" x1="411.088" y1="218.222" x2="411.088" y2="276.726" gradientUnits="userSpaceOnUse">
<stop stop-color="#3996FF"/>
<stop offset="1" stop-color="#002044"/>
</linearGradient>
<linearGradient id="paint11_linear_1343_3113" x1="352.098" y1="225.591" x2="352.098" y2="276.722" gradientUnits="userSpaceOnUse">
<stop stop-color="#0346FF"/>
<stop offset="1" stop-color="#002044"/>
</linearGradient>
<linearGradient id="paint12_linear_1343_3113" x1="518.25" y1="332.935" x2="523.405" y2="337.814" gradientUnits="userSpaceOnUse">
<stop stop-color="#689FFE"/>
<stop offset="1" stop-color="#14355A"/>
</linearGradient>
<linearGradient id="paint13_linear_1343_3113" x1="521.982" y1="346.602" x2="533.036" y2="357.655" gradientUnits="userSpaceOnUse">
<stop stop-color="#3996FF"/>
<stop offset="1" stop-color="#002044"/>
</linearGradient>
<linearGradient id="paint14_linear_1343_3113" x1="534.52" y1="336.849" x2="544.181" y2="346.511" gradientUnits="userSpaceOnUse">
<stop stop-color="#0346FF"/>
<stop offset="1" stop-color="#002044"/>
</linearGradient>
<linearGradient id="paint15_linear_1343_3113" x1="621.051" y1="389.232" x2="617.436" y2="395.823" gradientUnits="userSpaceOnUse">
<stop stop-color="#689FFE"/>
<stop offset="1" stop-color="#14355A"/>
</linearGradient>
<linearGradient id="paint16_linear_1343_3113" x1="608.015" y1="396.846" x2="599.46" y2="411.099" gradientUnits="userSpaceOnUse">
<stop stop-color="#3996FF"/>
<stop offset="1" stop-color="#002044"/>
</linearGradient>
<linearGradient id="paint17_linear_1343_3113" x1="621.498" y1="407.049" x2="614.021" y2="419.506" gradientUnits="userSpaceOnUse">
<stop stop-color="#0346FF"/>
<stop offset="1" stop-color="#002044"/>
</linearGradient>
<linearGradient id="paint18_linear_1343_3113" x1="621.051" y1="389.23" x2="617.436" y2="395.821" gradientUnits="userSpaceOnUse">
<stop stop-color="#689FFE"/>
<stop offset="1" stop-color="#14355A"/>
</linearGradient>
<linearGradient id="paint19_linear_1343_3113" x1="608.015" y1="396.846" x2="599.46" y2="411.098" gradientUnits="userSpaceOnUse">
<stop stop-color="#3996FF"/>
<stop offset="1" stop-color="#002044"/>
</linearGradient>
<linearGradient id="paint20_linear_1343_3113" x1="621.498" y1="407.047" x2="614.021" y2="419.504" gradientUnits="userSpaceOnUse">
<stop stop-color="#0346FF"/>
<stop offset="1" stop-color="#002044"/>
</linearGradient>
</defs>
</svg>
