<svg xmlns="http://www.w3.org/2000/svg" xmlns:xlink="http://www.w3.org/1999/xlink" width="574.472" height="521.985" viewBox="0 0 574.472 521.985"><defs><style>.a,.c{fill:#33226c;}.b,.o{fill:#ffb300;}.c{opacity:0.51;}.c,.i,.q{mix-blend-mode:color-dodge;}.ab,.af,.c,.f,.i,.l,.o,.q,.t,.x,.z{isolation:isolate;}.d{fill:#471f5e;}.e,.f{fill:#31236c;}.f{opacity:0.3;}.ab,.af,.f,.l,.o,.t,.x,.z{mix-blend-mode:multiply;}.g,.x{fill:#fbb1a6;}.h,.i{fill:#f1f2f2;}.i{opacity:0.46;}.j{fill:#d1d3d4;}.k{fill:url(#a);}.l{opacity:0.19;fill:url(#b);}.m{fill:url(#c);}.n{fill:url(#d);}.o{opacity:0.52;}.p{fill:url(#e);}.af,.q{opacity:0.1;}.q{fill:url(#f);}.r{fill:url(#g);}.s{fill:url(#h);}.t{opacity:0.44;fill:url(#i);}.u{fill:url(#j);}.v{fill:url(#k);}.w{fill:url(#l);}.x{opacity:0.26;}.y{fill:url(#m);}.ab,.z{opacity:0.33;}.z{fill:url(#n);}.aa{fill:url(#o);}.ab{fill:url(#p);}.ac{fill:#362478;}.ad{fill:url(#q);}.ae{fill:url(#r);}.ag{fill:url(#s);}.ah{fill:url(#t);}</style><linearGradient id="a" x1="-0.143" y1="-0.227" x2="1.334" y2="1.506" gradientUnits="objectBoundingBox"><stop offset="0" stop-color="#6ad0fb"/><stop offset="0.228" stop-color="#69cdf9"/><stop offset="0.387" stop-color="#69c3f5"/><stop offset="0.527" stop-color="#68b4ed"/><stop offset="0.654" stop-color="#679ee3"/><stop offset="0.773" stop-color="#6682d6"/><stop offset="0.885" stop-color="#645fc5"/><stop offset="0.992" stop-color="#6337b2"/><stop offset="0.995" stop-color="#6336b2"/></linearGradient><linearGradient id="b" x1="-0.074" y1="-0.234" x2="1.433" y2="1.499" xlink:href="#a"/><linearGradient id="c" x1="0.451" y1="-0.067" x2="0.583" y2="1.328" xlink:href="#a"/><linearGradient id="d" x1="0.878" y1="0.022" x2="-0.019" y2="1.284" xlink:href="#a"/><linearGradient id="e" x1="0.441" y1="-0.496" x2="0.555" y2="1.434" xlink:href="#a"/><linearGradient id="f" x1="0" y1="0.5" x2="1" y2="0.5" xlink:href="#a"/><linearGradient id="g" x1="-0.115" y1="0.774" x2="1.036" y2="0.301" gradientUnits="objectBoundingBox"><stop offset="0" stop-color="#43295d"/><stop offset="1" stop-color="#774b88"/></linearGradient><linearGradient id="h" x1="0.271" y1="-10.988" x2="0.775" y2="14.304" gradientUnits="objectBoundingBox"><stop offset="0" stop-color="#965bf1"/><stop offset="0.995" stop-color="#bb68fa"/></linearGradient><linearGradient id="i" x1="0.279" y1="-16.567" x2="0.766" y2="21.007" xlink:href="#h"/><linearGradient id="j" x1="0.621" y1="1.09" x2="0.393" y2="-0.005" xlink:href="#g"/><linearGradient id="k" x1="0.686" y1="1.12" x2="0.365" y2="0.058" xlink:href="#g"/><linearGradient id="l" x1="-0.011" y1="0.918" x2="1.035" y2="-0.056" xlink:href="#g"/><linearGradient id="m" x1="0.057" y1="0.317" x2="1.959" y2="0.935" gradientUnits="objectBoundingBox"><stop offset="0" stop-color="#9a72f6"/><stop offset="1" stop-color="#724ce4"/></linearGradient><linearGradient id="n" x1="0" y1="0.5" x2="1" y2="0.5" xlink:href="#m"/><linearGradient id="o" x1="-0.044" y1="0.443" x2="1.322" y2="0.713" xlink:href="#m"/><linearGradient id="p" x1="-0.207" y1="0.134" x2="1.899" y2="1.572" xlink:href="#m"/><linearGradient id="q" y1="0.5" x2="1" y2="0.5" gradientUnits="objectBoundingBox"><stop offset="0" stop-color="#533aa9"/><stop offset="1" stop-color="#2f2070"/></linearGradient><linearGradient id="r" x1="0.887" y1="1.14" x2="0.096" y2="-0.143" xlink:href="#g"/><linearGradient id="s" x1="0.178" y1="-0.901" x2="0.488" y2="0.704" xlink:href="#g"/><linearGradient id="t" x1="0.341" y1="-2.251" x2="0.558" y2="1.047" xlink:href="#g"/></defs><g transform="translate(-469.129 -450.35)"><rect class="a" width="7.141" height="252.323" transform="translate(927.558 679.545)"/><rect class="a" width="7.141" height="252.323" transform="translate(579.027 679.545)"/><path class="b" d="M1238.454,1682.289s-9.721,25.63-3.535,28.943,63.852,0,63.852,0,5.081-10.016-10.384-13.735-22.536-13-22.536-13Z" transform="translate(-484.074 -780.837)"/><path class="b" d="M964.266,1682.289s-9.722,25.63-3.535,28.943,63.852,0,63.852,0,5.082-10.016-10.384-13.735-22.536-13-22.536-13Z" transform="translate(-310.285 -780.837)"/><rect class="a" width="574.471" height="6.348" rx="3.174" transform="translate(469.129 678.672)"/><path class="c" d="M1041.607,1073.887H471.122a1.993,1.993,0,0,0-1.993,1.993v1.765a1.993,1.993,0,0,1,1.993-1.993h570.485a1.993,1.993,0,0,1,1.993,1.993v-1.765A1.993,1.993,0,0,0,1041.607,1073.887Z" transform="translate(0 -395.215)"/><rect class="a" width="7.141" height="252.323" transform="translate(1018.413 679.545)"/><path class="d" d="M1384.026,866.079s17.563,29.422,17.563,48.244c0,10.679-12.431,22.475-12.431,22.475l-69.8-.1s40.76-11.417,30.5-36.455-16.611-34.163-16.611-34.163Z" transform="translate(-538.9 -263.501)"/><path class="e" d="M1105.937,1202.6s76.694,5.317,104.463,29.65c8.725,13.225,13.486,14.283-36.238,148.643,0,0-19.572,9.522-32.8-2.645,15.34-54.484,22.746-108.441,22.746-108.441s-58.188,6.348-71.941-1.058S1081.617,1216.856,1105.937,1202.6Z" transform="translate(-389.761 -476.798)"/><path class="e" d="M840.431,1202.6s76.695,5.317,104.463,29.65c8.725,13.225,13.486,14.283-36.238,148.643,0,0-19.572,9.522-32.8-2.645,15.34-54.484,22.746-108.441,22.746-108.441s-41.124,1.96-55.037-5.142C818.7,1251.971,816.112,1216.856,840.431,1202.6Z" transform="translate(-224.605 -476.798)"/><path class="f" d="M840.431,1202.6s76.695,5.317,104.463,29.65c8.725,13.225,13.486,14.283-36.238,148.643,0,0-19.572,9.522-32.8-2.645,15.34-54.484,22.746-108.441,22.746-108.441s-41.124,1.96-55.037-5.142C818.7,1251.971,816.112,1216.856,840.431,1202.6Z" transform="translate(-224.605 -476.798)"/><rect class="a" width="7.141" height="252.323" transform="translate(488.172 679.545)"/><path class="g" d="M1401.982,989.122s14.624-5.4,21.938-1.033c8.2,4.893,11.9,11.514,13.885,22.217,1.588,8.567-9.918-5.555-12.3-6.612s-7.4,9.257-14.279,6.612-10.318-19.73-10.318-19.73" transform="translate(-590.588 -339.754)"/><path class="h" d="M1830.131,880.646h-59.574l-29.976,70.619h59.574Z" transform="translate(-805.882 -272.734)"/><path class="i" d="M1816.985,880.646h-36.436L1756.372,937.6a40.635,40.635,0,0,0,18.85,4.64c24.137,0,43.7-21.288,43.7-47.547A51.413,51.413,0,0,0,1816.985,880.646Z" transform="translate(-815.891 -272.734)"/><path class="j" d="M1933.251,880.646l9.83,70.619h-39.806Z" transform="translate(-909.002 -272.734)"/><g transform="translate(952.659 633.303)"><path class="j" d="M1858.061,952.28h-42.12a1.146,1.146,0,0,1-1.055-1.594h0a1.147,1.147,0,0,1,1.055-.7h42.12a1.146,1.146,0,0,1,1.055,1.594h0A1.146,1.146,0,0,1,1858.061,952.28Z" transform="translate(-1805.579 -949.988)"/><path class="j" d="M1849.221,973.106H1807.1a1.146,1.146,0,0,1-1.055-1.594h0a1.147,1.147,0,0,1,1.055-.7h42.12a1.146,1.146,0,0,1,1.055,1.594h0A1.146,1.146,0,0,1,1849.221,973.106Z" transform="translate(-1799.976 -963.188)"/><path class="j" d="M1840.38,993.933h-42.12a1.146,1.146,0,0,1-1.055-1.594h0a1.146,1.146,0,0,1,1.055-.7h42.12a1.146,1.146,0,0,1,1.055,1.594h0A1.146,1.146,0,0,1,1840.38,993.933Z" transform="translate(-1794.373 -976.389)"/><path class="j" d="M1817.116,1011.561h-26.339a1.146,1.146,0,0,1-1.055-1.594h0a1.146,1.146,0,0,1,1.055-.7h26.339a1.146,1.146,0,0,1,1.055,1.594h0A1.146,1.146,0,0,1,1817.116,1011.561Z" transform="translate(-1789.63 -987.562)"/><path class="j" d="M1842.658,1052.922h-26.34a1.147,1.147,0,0,1-1.055-1.594h0a1.146,1.146,0,0,1,1.055-.7h26.34a1.146,1.146,0,0,1,1.055,1.594h0A1.146,1.146,0,0,1,1842.658,1052.922Z" transform="translate(-1805.818 -1013.778)"/></g><g transform="translate(966.952 615.92)"><g transform="translate(0 0)"><path class="j" d="M1835.794,902.515l-4.615,10.872h-2.516l4.615-10.872Z" transform="translate(-1828.663 -902.515)"/><path class="j" d="M1849.409,902.515l-.87,2.05h4.564l-7.643,8.822h2.734l7.961-9.241.692-1.631Z" transform="translate(-1839.309 -902.515)"/></g></g><g transform="translate(500.057 528.521)"><path class="b" d="M601.426,965.965a3.593,3.593,0,0,0-3.588-3.785H558.56a3.593,3.593,0,0,0-3.588,3.785c.4,7.577,2.465,24.927,12.786,37.119H588.64C598.96,990.892,601.027,973.542,601.426,965.965Z" transform="translate(-554.464 -852.934)"/><path class="k" d="M571.1,820.794s-20.988-25.66-17-81.681c32.438,33.917,23.232,81.681,23.232,81.681Z" transform="translate(-553.593 -711.548)"/><path class="l" d="M554.945,739.113c0,.066-.008.13-.013.2,25.394,32.133,18.262,71.99,16.331,80.568.437.613.686.917.686.917h6.227S587.383,773.03,554.945,739.113Z" transform="translate(-554.442 -711.548)"/><path class="m" d="M627.118,663.833s-29.719,32.52-15.431,109.246h3.956S637.026,715.28,627.118,663.833Z" transform="translate(-587.952 -663.833)"/><path class="n" d="M661.905,780.859s-24.729,18.123-32.689,66.395h3.127S664.446,814.819,661.905,780.859Z" transform="translate(-601.525 -738.007)"/><path class="o" d="M582.156,1008.148h6.485a45.094,45.094,0,0,0,5.822-8.919c-23.837-1.937-26.2-19.1-26.166-26.1a2.948,2.948,0,0,0-2.954-2.956H555.034a3.59,3.59,0,0,0-.061.859c.4,7.577,2.465,24.927,12.786,37.119h14.4Z" transform="translate(-554.465 -857.998)"/></g><path class="d" d="M1019.935,606.693l21.972-156.343h274.385l-21.972,156.343Z" transform="translate(-349.116)"/><path class="p" d="M1298.906,609.7H1032.75l20.816-148.114h266.156Z" transform="translate(-357.238 -7.122)"/><path class="g" d="M1101.482,597.443s1.387,7.911-1.809,18.748a24.426,24.426,0,0,0,1.02,16.916l.053.117a3.309,3.309,0,0,1-1.323,4.22,11.454,11.454,0,0,1-1.24.631,4.582,4.582,0,0,0-2.663,3.189l-1.923,8.653-14.635-2.821-4.056-32.444,12.166-22.57Z" transform="translate(-383.958 -89.834)"/><path class="g" d="M996.531,670.449s-4.876,5.812-5.669,17.45l-34.3-2.116L961.459,670,983.588,627.6l12.943-1.322S1000.216,643.478,996.531,670.449Z" transform="translate(-308.951 -111.505)"/><path class="q" d="M1054.285,555.825c24.651,22.256,64.329,36.7,109.08,36.7,74.776,0,135.395-40.316,135.395-90.049,0-14.721-5.312-28.617-14.73-40.886h-216.5Z" transform="translate(-370.888 -7.122)"/><path class="r" d="M994.631,611.79a6.018,6.018,0,0,1-7.4,4.857c-6.541-1.656-15.61-5.53-14.584-14.192,1.587-13.4,3.527-35.618-5.113-35.089s-7.229,10.932-3.35,19.043-12.519,22.217-26.1,20.277c0,0,.97-8.552-5.995-18.161-9.486-13.089-11.814-20.983-12.343-28.212s2.469-16.751,11.99-19.748c2.967-8.725,18.542-22.633,63.135-7.363a24.65,24.65,0,0,0,4.184,1.071,22.749,22.749,0,0,0,12.028-1.115s1.961,11.546-3.792,19.228a11.427,11.427,0,0,1-10.267,4.5c-9.154-.907-13.664,3.743-15.388,10.482-1.94,7.582-4.761,32.8,2.292,36.5s11.285,4.408,11.285,4.408Z" transform="translate(-285.579 -48.189)"/><rect class="s" width="116.027" height="5.374" transform="translate(766.973 673.298)"/><rect class="t" width="116.027" height="3.495" transform="translate(766.973 675.177)"/><path class="f" d="M1258.53,1495.661c12.244-40.51,26.453-117.513,26.453-117.513l-18.9,2.927a928.735,928.735,0,0,1-18.887,94.13c-.818,5.1-1.611,10.47-2.255,15.655A24.007,24.007,0,0,0,1258.53,1495.661Z" transform="translate(-491.729 -588.064)"/><path class="u" d="M1144.758,1385.094l-6.846,2.267a3.894,3.894,0,0,0-2.414,5.085l56.213,147.239a3.893,3.893,0,0,0,4.118,2.475h0a3.894,3.894,0,0,0,3.217-5.085L1149.68,1387.57A3.894,3.894,0,0,0,1144.758,1385.094Z" transform="translate(-422.2 -592.341)"/><path class="v" d="M944.44,1378.223l7.073,1.405a3.894,3.894,0,0,1,3.022,4.749l-37.629,153.047a3.894,3.894,0,0,1-3.781,2.964h0a3.894,3.894,0,0,1-3.82-4.65l30.555-154.453A3.894,3.894,0,0,1,944.44,1378.223Z" transform="translate(-278.949 -588.064)"/><path class="w" d="M791.643,1382.891l7.79,2.137a4.362,4.362,0,0,1,3,5.548l-54.3,167.981a4.363,4.363,0,0,1-4.462,3.009h0a4.362,4.362,0,0,1-3.9-5.5l46.506-170.118A4.362,4.362,0,0,1,791.643,1382.891Z" transform="translate(-171.445 -590.972)"/><path class="x" d="M1027.669,753.745l8.26.51c.793-11.638,5.669-17.45,5.669-17.45q.41-3,.7-5.842A28.922,28.922,0,0,0,1027.669,753.745Z" transform="translate(-354.018 -177.86)"/><path class="y" d="M809.169,792.468s-22.688.264-43.318,41.525-19.828,45.141-19.828,45.141-10.853,42.67,52.624,23.1Z" transform="translate(-175.057 -216.844)"/><path class="z" d="M836.6,876.512c-2.793-10.149-5.085-16.949-5.085-16.949s-55.583,58.748-32.952,90.227c7.624.506,17.838-.821,31.5-5.032Z" transform="translate(-205.373 -259.371)"/><path class="aa" d="M825.936,878.239a202.3,202.3,0,0,1,6.877-50.782c7.406-28.036,9.537-45.255,58.724-41.935s45.633,6.494,52.435,11.254c5.494,3.845,29.842,44.681,39.005,60.248a11.4,11.4,0,0,0,10.445,5.6c12.633-.687,38.415-2.039,41.989-1.84,4.761.264,12.96,12.7,11.108,23.54-40.2,14.282-60.131,21.952-75.38,17.456-17.791-5.246-30.725-42.023-34.783-43.376-1.1,9.181-5.167,52.759,4.9,74.322,11.109,23.8-66.139,63.478-115.326,36.5C826.465,911.564,825.936,878.239,825.936,878.239Z" transform="translate(-226.149 -212.183)"/><path class="ab" d="M1163.476,954.132c-4.87,3.042-56.333,34.187-77.865,5.734C1063,929.984,1053.6,899.294,1034.069,921.1s-21.268,81.569-20.8,83.991c.313,1.63,9.621,27.753,15.678,44.673,21.609-9.633,35.8-24.267,30.591-35.418-10.063-21.563-5.992-65.14-4.9-74.322,4.058,1.353,16.992,38.13,34.783,43.376,15.248,4.5,35.177-3.174,75.38-17.457A23.592,23.592,0,0,0,1163.476,954.132Z" transform="translate(-344.851 -293.705)"/><path class="ac" d="M779.269,1097.742s-7.405-75.644,56.6-75.644c69.887,0,59.775,71.412,78.363,98.39,7.787,16.817,21.053,30.138,33.764,36.757s-78.054,36.29-126.939,8.471C780.856,1142.838,779.269,1097.742,779.269,1097.742Z" transform="translate(-196.41 -362.39)"/><path class="ad" d="M971.355,1157.245c-12.712-6.619-25.977-19.94-33.764-36.757-18.589-26.978-8.476-98.39-78.363-98.39-21.872,0-35.4,8.834-43.743,20.463,7.47-4.257,16.9-6.873,28.8-6.873,69.887,0,59.775,71.412,78.363,98.39,7.155,15.452,18.936,27.948,30.662,35.01C967.726,1164.607,975.763,1159.541,971.355,1157.245Z" transform="translate(-219.529 -362.39)"/><path class="ae" d="M1051.227,1381.622h0a8.308,8.308,0,0,0-6.449,10.132l41.163,167.424a4.362,4.362,0,0,0,4.235,3.32h0a4.361,4.361,0,0,0,4.279-5.208L1061,1388.159A8.308,8.308,0,0,0,1051.227,1381.622Z" transform="translate(-364.709 -590.164)"/><path class="b" d="M1911.94,914.194h-8.665l3.678-8.665h8.665Z" transform="translate(-909.002 -288.505)"/><g class="af" transform="translate(645.681 524.011)"><path class="ag" d="M1086.237,690.626l.506-3.037s-4.231-.705-11.285-4.408c-5.924-3.11-4.882-21.4-3.247-31.664a17.292,17.292,0,0,0-7.2,3.222c1.207,7.572.118,18.917-.843,27.031-1,8.425,7.552,12.32,14.039,14.051A6.462,6.462,0,0,0,1086.237,690.626Z" transform="translate(-1022.786 -651.516)"/><path class="ah" d="M951.284,687.9q.407.575.833,1.162c6.965,9.61,5.995,18.161,5.995,18.161,13.577,1.94,29.976-12.166,26.1-20.277-.3-.637-.592-1.289-.862-1.948C972.614,692.669,961.054,691.642,951.284,687.9Z" transform="translate(-951.284 -672.737)"/></g><ellipse class="h" cx="14.107" cy="12.259" rx="14.107" ry="12.259" transform="translate(800.649 503.096) rotate(-42.99)"/><path class="h" d="M1390.312,668.959h-49.449a1.748,1.748,0,0,1-1.731-1.991l.229-1.631a1.748,1.748,0,0,1,1.731-1.5h49.449a1.748,1.748,0,0,1,1.731,1.991l-.229,1.631A1.748,1.748,0,0,1,1390.312,668.959Z" transform="translate(-551.421 -135.312)"/><path class="h" d="M1385.715,701.9h-49.449a1.748,1.748,0,0,1-1.731-1.991l.229-1.631a1.748,1.748,0,0,1,1.73-1.5h49.449a1.748,1.748,0,0,1,1.731,1.991l-.229,1.631A1.747,1.747,0,0,1,1385.715,701.9Z" transform="translate(-548.507 -156.189)"/><path class="b" d="M1390.705,753.893H1377.6a1.748,1.748,0,0,1-1.731-1.991l.229-1.631a1.748,1.748,0,0,1,1.731-1.5h13.106a1.748,1.748,0,0,1,1.731,1.991l-.229,1.631A1.748,1.748,0,0,1,1390.705,753.893Z" transform="translate(-574.706 -189.145)"/></g></svg>