<svg width="205" height="120" viewBox="0 0 205 120" fill="none" xmlns="http://www.w3.org/2000/svg">
<g clip-path="url(#clip0_2736_1019)">
<path d="M26.574 82.4122L39.7233 95.1916C40.711 96.1515 42.3364 96.1769 43.3537 95.2484L56.9288 82.8573C57.9461 81.9288 57.9701 80.3978 56.9824 79.4379L43.8331 66.6585C42.8454 65.6986 41.22 65.6731 40.2027 66.6017L26.6275 78.9928C25.6103 79.9213 25.5863 81.4523 26.574 82.4122Z" stroke="#0346FF" stroke-opacity="0.16" stroke-width="6.98297"/>
<path d="M4.77617 60.9273L17.9254 73.7067C18.9132 74.6666 20.5385 74.6921 21.5558 73.7635L35.131 61.3725C36.1483 60.4439 36.1722 58.913 35.1845 57.953L22.0353 45.1737C21.0475 44.2137 19.4221 44.1883 18.4048 45.1168L4.8297 57.5079C3.8124 58.4365 3.78844 59.9674 4.77617 60.9273Z" stroke="#689FFE" stroke-opacity="0.16" stroke-width="6.98297"/>
<path d="M28.0945 40.8746L41.2438 53.654C42.2315 54.6139 43.8569 54.6393 44.8742 53.7108L58.4493 41.3197C59.4666 40.3912 59.4906 38.8602 58.5029 37.9003L45.3536 25.1209C44.3659 24.161 42.7405 24.1355 41.7232 25.0641L28.1481 37.4552C27.1308 38.3837 27.1068 39.9147 28.0945 40.8746Z" stroke="#03D2FF" stroke-opacity="0.16" stroke-width="6.98297"/>
<path d="M49.8914 62.3599L63.0407 75.1393C64.0284 76.0993 65.6538 76.1247 66.6711 75.1961L80.2462 62.8051C81.2635 61.8765 81.2875 60.3456 80.2997 59.3856L67.1505 46.6063C66.1628 45.6463 64.5374 45.6209 63.5201 46.5495L49.9449 58.9405C48.9276 59.8691 48.9037 61.4 49.8914 62.3599Z" stroke="#3996FF" stroke-opacity="0.16" stroke-width="6.98297"/>
<path d="M21.6797 60L23.6641 48.625H25.0781L23.0938 60H21.6797ZM24.6094 60L26.6016 48.625H28.0156L26.0234 60H24.6094ZM29.1797 53.1953H21.0469V51.875H29.1797V53.1953ZM28.5859 56.7969H20.4609V55.4844H28.5859V56.7969ZM35.125 50.5703L32.0312 60H29.5391L33.7656 48.625H35.3516L35.125 50.5703ZM37.6953 60L34.5938 50.5703L34.3438 48.625H35.9453L40.1953 60H37.6953ZM37.5547 55.7656V57.6016H31.5469V55.7656H37.5547ZM43.0625 53.3516V60H40.8125V51.5469H42.9219L43.0625 53.3516ZM42.7344 55.4766H42.125C42.125 54.8516 42.2057 54.2891 42.3672 53.7891C42.5286 53.2839 42.7552 52.8542 43.0469 52.5C43.3385 52.1406 43.6849 51.8672 44.0859 51.6797C44.4922 51.487 44.9453 51.3906 45.4453 51.3906C45.8411 51.3906 46.2031 51.4479 46.5312 51.5625C46.8594 51.6771 47.1406 51.8594 47.375 52.1094C47.6146 52.3594 47.7969 52.6901 47.9219 53.1016C48.0521 53.513 48.1172 54.0156 48.1172 54.6094V60H45.8516V54.6016C45.8516 54.2266 45.7995 53.9349 45.6953 53.7266C45.5911 53.5182 45.4375 53.3724 45.2344 53.2891C45.0365 53.2005 44.7917 53.1562 44.5 53.1562C44.1979 53.1562 43.9349 53.2161 43.7109 53.3359C43.4922 53.4557 43.3099 53.6224 43.1641 53.8359C43.0234 54.0443 42.9167 54.2891 42.8438 54.5703C42.7708 54.8516 42.7344 55.1536 42.7344 55.4766ZM54.3906 58.0938V54.3281C54.3906 54.0573 54.3464 53.8255 54.2578 53.6328C54.1693 53.4349 54.0312 53.2812 53.8438 53.1719C53.6615 53.0625 53.4245 53.0078 53.1328 53.0078C52.8828 53.0078 52.6667 53.0521 52.4844 53.1406C52.3021 53.224 52.1615 53.3464 52.0625 53.5078C51.9635 53.6641 51.9141 53.849 51.9141 54.0625H49.6641C49.6641 53.7031 49.7474 53.362 49.9141 53.0391C50.0807 52.7161 50.3229 52.4323 50.6406 52.1875C50.9583 51.9375 51.3359 51.7422 51.7734 51.6016C52.2161 51.4609 52.7109 51.3906 53.2578 51.3906C53.9141 51.3906 54.4974 51.5 55.0078 51.7188C55.5182 51.9375 55.9193 52.2656 56.2109 52.7031C56.5078 53.1406 56.6562 53.6875 56.6562 54.3438V57.9609C56.6562 58.4245 56.6849 58.8047 56.7422 59.1016C56.7995 59.3932 56.8828 59.6484 56.9922 59.8672V60H54.7188C54.6094 59.7708 54.526 59.4844 54.4688 59.1406C54.4167 58.7917 54.3906 58.4427 54.3906 58.0938ZM54.6875 54.8516L54.7031 56.125H53.4453C53.1484 56.125 52.8906 56.1589 52.6719 56.2266C52.4531 56.2943 52.2734 56.3906 52.1328 56.5156C51.9922 56.6354 51.888 56.776 51.8203 56.9375C51.7578 57.099 51.7266 57.276 51.7266 57.4688C51.7266 57.6615 51.7708 57.8359 51.8594 57.9922C51.9479 58.1432 52.0755 58.263 52.2422 58.3516C52.4089 58.4349 52.6042 58.4766 52.8281 58.4766C53.1667 58.4766 53.4609 58.4089 53.7109 58.2734C53.9609 58.138 54.1536 57.9714 54.2891 57.7734C54.4297 57.5755 54.5026 57.388 54.5078 57.2109L55.1016 58.1641C55.0182 58.3776 54.9036 58.599 54.7578 58.8281C54.6172 59.0573 54.4375 59.2734 54.2188 59.4766C54 59.6745 53.737 59.8385 53.4297 59.9688C53.1224 60.0938 52.7578 60.1562 52.3359 60.1562C51.7995 60.1562 51.3125 60.0495 50.875 59.8359C50.4427 59.6172 50.099 59.3177 49.8438 58.9375C49.5938 58.5521 49.4688 58.1146 49.4688 57.625C49.4688 57.1823 49.5521 56.7891 49.7188 56.4453C49.8854 56.1016 50.1302 55.8125 50.4531 55.5781C50.7812 55.3385 51.1901 55.1589 51.6797 55.0391C52.1693 54.9141 52.737 54.8516 53.3828 54.8516H54.6875ZM60.7656 48V60H58.5078V48H60.7656ZM65.1328 59.0469L67.375 51.5469H69.7891L66.3906 61.2734C66.3177 61.487 66.2188 61.7161 66.0938 61.9609C65.974 62.2057 65.8099 62.4375 65.6016 62.6562C65.3984 62.8802 65.1406 63.0625 64.8281 63.2031C64.5208 63.3438 64.1432 63.4141 63.6953 63.4141C63.4818 63.4141 63.3073 63.401 63.1719 63.375C63.0365 63.349 62.875 63.3125 62.6875 63.2656V61.6172C62.7448 61.6172 62.8047 61.6172 62.8672 61.6172C62.9297 61.6224 62.9896 61.625 63.0469 61.625C63.3438 61.625 63.5859 61.5911 63.7734 61.5234C63.9609 61.4557 64.112 61.3516 64.2266 61.2109C64.3411 61.0755 64.4323 60.8984 64.5 60.6797L65.1328 59.0469ZM64.1953 51.5469L66.0312 57.6719L66.3516 60.0547L64.8203 60.2188L61.7812 51.5469H64.1953ZM75.2578 57.6641C75.2578 57.5026 75.2109 57.3568 75.1172 57.2266C75.0234 57.0964 74.849 56.9766 74.5938 56.8672C74.3438 56.7526 73.9818 56.6484 73.5078 56.5547C73.0807 56.4609 72.6823 56.3438 72.3125 56.2031C71.9479 56.0573 71.6302 55.8828 71.3594 55.6797C71.0938 55.4766 70.8854 55.237 70.7344 54.9609C70.5833 54.6797 70.5078 54.3594 70.5078 54C70.5078 53.6458 70.5833 53.3125 70.7344 53C70.8906 52.6875 71.112 52.4115 71.3984 52.1719C71.6901 51.9271 72.0443 51.737 72.4609 51.6016C72.8828 51.4609 73.3568 51.3906 73.8828 51.3906C74.6172 51.3906 75.2474 51.5078 75.7734 51.7422C76.3047 51.9766 76.7109 52.2995 76.9922 52.7109C77.2786 53.1172 77.4219 53.5807 77.4219 54.1016H75.1719C75.1719 53.8828 75.125 53.6875 75.0312 53.5156C74.9427 53.3385 74.8021 53.2005 74.6094 53.1016C74.4219 52.9974 74.1771 52.9453 73.875 52.9453C73.625 52.9453 73.4089 52.9896 73.2266 53.0781C73.0443 53.1615 72.9036 53.276 72.8047 53.4219C72.7109 53.5625 72.6641 53.7188 72.6641 53.8906C72.6641 54.0208 72.6901 54.138 72.7422 54.2422C72.7995 54.3411 72.8906 54.4323 73.0156 54.5156C73.1406 54.599 73.3021 54.6771 73.5 54.75C73.7031 54.8177 73.9531 54.8802 74.25 54.9375C74.8594 55.0625 75.4036 55.2266 75.8828 55.4297C76.362 55.6276 76.7422 55.8984 77.0234 56.2422C77.3047 56.5807 77.4453 57.026 77.4453 57.5781C77.4453 57.9531 77.362 58.2969 77.1953 58.6094C77.0286 58.9219 76.7891 59.1953 76.4766 59.4297C76.1641 59.6589 75.7891 59.8385 75.3516 59.9688C74.9193 60.0938 74.4323 60.1562 73.8906 60.1562C73.1042 60.1562 72.4375 60.0156 71.8906 59.7344C71.349 59.4531 70.9375 59.0964 70.6562 58.6641C70.3802 58.2266 70.2422 57.7786 70.2422 57.3203H72.375C72.3854 57.6276 72.4635 57.875 72.6094 58.0625C72.7604 58.25 72.9505 58.3854 73.1797 58.4688C73.4141 58.5521 73.6667 58.5938 73.9375 58.5938C74.2292 58.5938 74.4714 58.5547 74.6641 58.4766C74.8568 58.3932 75.0026 58.2839 75.1016 58.1484C75.2057 58.0078 75.2578 57.8464 75.2578 57.6641ZM82.7969 60.1562C82.1406 60.1562 81.5521 60.0521 81.0312 59.8438C80.5104 59.6302 80.0677 59.3359 79.7031 58.9609C79.3438 58.5859 79.0677 58.151 78.875 57.6562C78.6823 57.1562 78.5859 56.625 78.5859 56.0625V55.75C78.5859 55.1094 78.6771 54.5234 78.8594 53.9922C79.0417 53.4609 79.3021 53 79.6406 52.6094C79.9844 52.2188 80.401 51.9193 80.8906 51.7109C81.3802 51.4974 81.9323 51.3906 82.5469 51.3906C83.1458 51.3906 83.6771 51.4896 84.1406 51.6875C84.6042 51.8854 84.9922 52.1667 85.3047 52.5312C85.6224 52.8958 85.862 53.3333 86.0234 53.8438C86.1849 54.349 86.2656 54.9115 86.2656 55.5312V56.4688H79.5469V54.9688H84.0547V54.7969C84.0547 54.4844 83.9974 54.2057 83.8828 53.9609C83.7734 53.7109 83.6068 53.513 83.3828 53.3672C83.1589 53.2214 82.8724 53.1484 82.5234 53.1484C82.2266 53.1484 81.9714 53.2135 81.7578 53.3438C81.5443 53.474 81.3698 53.6562 81.2344 53.8906C81.1042 54.125 81.0052 54.401 80.9375 54.7188C80.875 55.0312 80.8438 55.375 80.8438 55.75V56.0625C80.8438 56.401 80.8906 56.7135 80.9844 57C81.0833 57.2865 81.2214 57.5339 81.3984 57.7422C81.5807 57.9505 81.7995 58.112 82.0547 58.2266C82.3151 58.3411 82.6094 58.3984 82.9375 58.3984C83.3438 58.3984 83.7214 58.3203 84.0703 58.1641C84.4245 58.0026 84.7292 57.7604 84.9844 57.4375L86.0781 58.625C85.901 58.8802 85.6589 59.125 85.3516 59.3594C85.0495 59.5938 84.6849 59.7865 84.2578 59.9375C83.8307 60.0833 83.3438 60.1562 82.7969 60.1562ZM96.0938 58.0938V54.3281C96.0938 54.0573 96.0495 53.8255 95.9609 53.6328C95.8724 53.4349 95.7344 53.2812 95.5469 53.1719C95.3646 53.0625 95.1276 53.0078 94.8359 53.0078C94.5859 53.0078 94.3698 53.0521 94.1875 53.1406C94.0052 53.224 93.8646 53.3464 93.7656 53.5078C93.6667 53.6641 93.6172 53.849 93.6172 54.0625H91.3672C91.3672 53.7031 91.4505 53.362 91.6172 53.0391C91.7839 52.7161 92.026 52.4323 92.3438 52.1875C92.6615 51.9375 93.0391 51.7422 93.4766 51.6016C93.9193 51.4609 94.4141 51.3906 94.9609 51.3906C95.6172 51.3906 96.2005 51.5 96.7109 51.7188C97.2214 51.9375 97.6224 52.2656 97.9141 52.7031C98.2109 53.1406 98.3594 53.6875 98.3594 54.3438V57.9609C98.3594 58.4245 98.388 58.8047 98.4453 59.1016C98.5026 59.3932 98.5859 59.6484 98.6953 59.8672V60H96.4219C96.3125 59.7708 96.2292 59.4844 96.1719 59.1406C96.1198 58.7917 96.0938 58.4427 96.0938 58.0938ZM96.3906 54.8516L96.4062 56.125H95.1484C94.8516 56.125 94.5938 56.1589 94.375 56.2266C94.1562 56.2943 93.9766 56.3906 93.8359 56.5156C93.6953 56.6354 93.5911 56.776 93.5234 56.9375C93.4609 57.099 93.4297 57.276 93.4297 57.4688C93.4297 57.6615 93.474 57.8359 93.5625 57.9922C93.651 58.1432 93.7786 58.263 93.9453 58.3516C94.112 58.4349 94.3073 58.4766 94.5312 58.4766C94.8698 58.4766 95.1641 58.4089 95.4141 58.2734C95.6641 58.138 95.8568 57.9714 95.9922 57.7734C96.1328 57.5755 96.2057 57.388 96.2109 57.2109L96.8047 58.1641C96.7214 58.3776 96.6068 58.599 96.4609 58.8281C96.3203 59.0573 96.1406 59.2734 95.9219 59.4766C95.7031 59.6745 95.4401 59.8385 95.1328 59.9688C94.8255 60.0938 94.4609 60.1562 94.0391 60.1562C93.5026 60.1562 93.0156 60.0495 92.5781 59.8359C92.1458 59.6172 91.8021 59.3177 91.5469 58.9375C91.2969 58.5521 91.1719 58.1146 91.1719 57.625C91.1719 57.1823 91.2552 56.7891 91.4219 56.4453C91.5885 56.1016 91.8333 55.8125 92.1562 55.5781C92.4844 55.3385 92.8932 55.1589 93.3828 55.0391C93.8724 54.9141 94.4401 54.8516 95.0859 54.8516H96.3906ZM102.297 53.3516V60H100.047V51.5469H102.156L102.297 53.3516ZM101.969 55.4766H101.359C101.359 54.8516 101.44 54.2891 101.602 53.7891C101.763 53.2839 101.99 52.8542 102.281 52.5C102.573 52.1406 102.919 51.8672 103.32 51.6797C103.727 51.487 104.18 51.3906 104.68 51.3906C105.076 51.3906 105.438 51.4479 105.766 51.5625C106.094 51.6771 106.375 51.8594 106.609 52.1094C106.849 52.3594 107.031 52.6901 107.156 53.1016C107.286 53.513 107.352 54.0156 107.352 54.6094V60H105.086V54.6016C105.086 54.2266 105.034 53.9349 104.93 53.7266C104.826 53.5182 104.672 53.3724 104.469 53.2891C104.271 53.2005 104.026 53.1562 103.734 53.1562C103.432 53.1562 103.169 53.2161 102.945 53.3359C102.727 53.4557 102.544 53.6224 102.398 53.8359C102.258 54.0443 102.151 54.2891 102.078 54.5703C102.005 54.8516 101.969 55.1536 101.969 55.4766ZM114.055 58.1562V48H116.32V60H114.281L114.055 58.1562ZM108.711 55.875V55.7109C108.711 55.0651 108.784 54.4792 108.93 53.9531C109.076 53.4219 109.289 52.9661 109.57 52.5859C109.852 52.2057 110.198 51.9115 110.609 51.7031C111.021 51.4948 111.49 51.3906 112.016 51.3906C112.51 51.3906 112.943 51.4948 113.312 51.7031C113.688 51.9115 114.005 52.2083 114.266 52.5938C114.531 52.974 114.745 53.4245 114.906 53.9453C115.068 54.4609 115.185 55.026 115.258 55.6406V56C115.185 56.5885 115.068 57.1354 114.906 57.6406C114.745 58.1458 114.531 58.5885 114.266 58.9688C114.005 59.3438 113.688 59.6354 113.312 59.8438C112.938 60.0521 112.5 60.1562 112 60.1562C111.474 60.1562 111.005 60.0495 110.594 59.8359C110.188 59.6224 109.844 59.3229 109.562 58.9375C109.286 58.5521 109.076 58.099 108.93 57.5781C108.784 57.0573 108.711 56.4896 108.711 55.875ZM110.961 55.7109V55.875C110.961 56.224 110.987 56.5495 111.039 56.8516C111.096 57.1536 111.188 57.4219 111.312 57.6562C111.443 57.8854 111.609 58.0651 111.812 58.1953C112.021 58.3203 112.273 58.3828 112.57 58.3828C112.956 58.3828 113.273 58.2969 113.523 58.125C113.773 57.9479 113.964 57.7057 114.094 57.3984C114.229 57.0911 114.307 56.737 114.328 56.3359V55.3125C114.312 54.9844 114.266 54.6901 114.188 54.4297C114.115 54.1641 114.005 53.9375 113.859 53.75C113.719 53.5625 113.542 53.4167 113.328 53.3125C113.12 53.2083 112.872 53.1562 112.586 53.1562C112.294 53.1562 112.044 53.224 111.836 53.3594C111.628 53.4896 111.458 53.6693 111.328 53.8984C111.203 54.1276 111.109 54.3984 111.047 54.7109C110.99 55.0182 110.961 55.3516 110.961 55.7109ZM126.867 48.625V60H124.531V48.625H126.867ZM130.367 48.625V50.4609H121.086V48.625H130.367ZM133.266 53.3906V60H131.016V51.5469H133.133L133.266 53.3906ZM135.812 51.4922L135.773 53.5781C135.664 53.5625 135.531 53.5495 135.375 53.5391C135.224 53.5234 135.086 53.5156 134.961 53.5156C134.643 53.5156 134.367 53.5573 134.133 53.6406C133.904 53.7188 133.711 53.8359 133.555 53.9922C133.404 54.1484 133.289 54.3385 133.211 54.5625C133.138 54.7865 133.096 55.0417 133.086 55.3281L132.633 55.1875C132.633 54.6406 132.688 54.138 132.797 53.6797C132.906 53.2161 133.065 52.8125 133.273 52.4688C133.487 52.125 133.747 51.8594 134.055 51.6719C134.362 51.4844 134.714 51.3906 135.109 51.3906C135.234 51.3906 135.362 51.401 135.492 51.4219C135.622 51.4375 135.729 51.4609 135.812 51.4922ZM141.172 58.0938V54.3281C141.172 54.0573 141.128 53.8255 141.039 53.6328C140.951 53.4349 140.812 53.2812 140.625 53.1719C140.443 53.0625 140.206 53.0078 139.914 53.0078C139.664 53.0078 139.448 53.0521 139.266 53.1406C139.083 53.224 138.943 53.3464 138.844 53.5078C138.745 53.6641 138.695 53.849 138.695 54.0625H136.445C136.445 53.7031 136.529 53.362 136.695 53.0391C136.862 52.7161 137.104 52.4323 137.422 52.1875C137.74 51.9375 138.117 51.7422 138.555 51.6016C138.997 51.4609 139.492 51.3906 140.039 51.3906C140.695 51.3906 141.279 51.5 141.789 51.7188C142.299 51.9375 142.701 52.2656 142.992 52.7031C143.289 53.1406 143.438 53.6875 143.438 54.3438V57.9609C143.438 58.4245 143.466 58.8047 143.523 59.1016C143.581 59.3932 143.664 59.6484 143.773 59.8672V60H141.5C141.391 59.7708 141.307 59.4844 141.25 59.1406C141.198 58.7917 141.172 58.4427 141.172 58.0938ZM141.469 54.8516L141.484 56.125H140.227C139.93 56.125 139.672 56.1589 139.453 56.2266C139.234 56.2943 139.055 56.3906 138.914 56.5156C138.773 56.6354 138.669 56.776 138.602 56.9375C138.539 57.099 138.508 57.276 138.508 57.4688C138.508 57.6615 138.552 57.8359 138.641 57.9922C138.729 58.1432 138.857 58.263 139.023 58.3516C139.19 58.4349 139.385 58.4766 139.609 58.4766C139.948 58.4766 140.242 58.4089 140.492 58.2734C140.742 58.138 140.935 57.9714 141.07 57.7734C141.211 57.5755 141.284 57.388 141.289 57.2109L141.883 58.1641C141.799 58.3776 141.685 58.599 141.539 58.8281C141.398 59.0573 141.219 59.2734 141 59.4766C140.781 59.6745 140.518 59.8385 140.211 59.9688C139.904 60.0938 139.539 60.1562 139.117 60.1562C138.581 60.1562 138.094 60.0495 137.656 59.8359C137.224 59.6172 136.88 59.3177 136.625 58.9375C136.375 58.5521 136.25 58.1146 136.25 57.625C136.25 57.1823 136.333 56.7891 136.5 56.4453C136.667 56.1016 136.911 55.8125 137.234 55.5781C137.562 55.3385 137.971 55.1589 138.461 55.0391C138.951 54.9141 139.518 54.8516 140.164 54.8516H141.469ZM150.164 58.1562V48H152.43V60H150.391L150.164 58.1562ZM144.82 55.875V55.7109C144.82 55.0651 144.893 54.4792 145.039 53.9531C145.185 53.4219 145.398 52.9661 145.68 52.5859C145.961 52.2057 146.307 51.9115 146.719 51.7031C147.13 51.4948 147.599 51.3906 148.125 51.3906C148.62 51.3906 149.052 51.4948 149.422 51.7031C149.797 51.9115 150.115 52.2083 150.375 52.5938C150.641 52.974 150.854 53.4245 151.016 53.9453C151.177 54.4609 151.294 55.026 151.367 55.6406V56C151.294 56.5885 151.177 57.1354 151.016 57.6406C150.854 58.1458 150.641 58.5885 150.375 58.9688C150.115 59.3438 149.797 59.6354 149.422 59.8438C149.047 60.0521 148.609 60.1562 148.109 60.1562C147.583 60.1562 147.115 60.0495 146.703 59.8359C146.297 59.6224 145.953 59.3229 145.672 58.9375C145.396 58.5521 145.185 58.099 145.039 57.5781C144.893 57.0573 144.82 56.4896 144.82 55.875ZM147.07 55.7109V55.875C147.07 56.224 147.096 56.5495 147.148 56.8516C147.206 57.1536 147.297 57.4219 147.422 57.6562C147.552 57.8854 147.719 58.0651 147.922 58.1953C148.13 58.3203 148.383 58.3828 148.68 58.3828C149.065 58.3828 149.383 58.2969 149.633 58.125C149.883 57.9479 150.073 57.7057 150.203 57.3984C150.339 57.0911 150.417 56.737 150.438 56.3359V55.3125C150.422 54.9844 150.375 54.6901 150.297 54.4297C150.224 54.1641 150.115 53.9375 149.969 53.75C149.828 53.5625 149.651 53.4167 149.438 53.3125C149.229 53.2083 148.982 53.1562 148.695 53.1562C148.404 53.1562 148.154 53.224 147.945 53.3594C147.737 53.4896 147.568 53.6693 147.438 53.8984C147.312 54.1276 147.219 54.3984 147.156 54.7109C147.099 55.0182 147.07 55.3516 147.07 55.7109ZM158.078 60.1562C157.422 60.1562 156.833 60.0521 156.312 59.8438C155.792 59.6302 155.349 59.3359 154.984 58.9609C154.625 58.5859 154.349 58.151 154.156 57.6562C153.964 57.1562 153.867 56.625 153.867 56.0625V55.75C153.867 55.1094 153.958 54.5234 154.141 53.9922C154.323 53.4609 154.583 53 154.922 52.6094C155.266 52.2188 155.682 51.9193 156.172 51.7109C156.661 51.4974 157.214 51.3906 157.828 51.3906C158.427 51.3906 158.958 51.4896 159.422 51.6875C159.885 51.8854 160.273 52.1667 160.586 52.5312C160.904 52.8958 161.143 53.3333 161.305 53.8438C161.466 54.349 161.547 54.9115 161.547 55.5312V56.4688H154.828V54.9688H159.336V54.7969C159.336 54.4844 159.279 54.2057 159.164 53.9609C159.055 53.7109 158.888 53.513 158.664 53.3672C158.44 53.2214 158.154 53.1484 157.805 53.1484C157.508 53.1484 157.253 53.2135 157.039 53.3438C156.826 53.474 156.651 53.6562 156.516 53.8906C156.385 54.125 156.286 54.401 156.219 54.7188C156.156 55.0312 156.125 55.375 156.125 55.75V56.0625C156.125 56.401 156.172 56.7135 156.266 57C156.365 57.2865 156.503 57.5339 156.68 57.7422C156.862 57.9505 157.081 58.112 157.336 58.2266C157.596 58.3411 157.891 58.3984 158.219 58.3984C158.625 58.3984 159.003 58.3203 159.352 58.1641C159.706 58.0026 160.01 57.7604 160.266 57.4375L161.359 58.625C161.182 58.8802 160.94 59.125 160.633 59.3594C160.331 59.5938 159.966 59.7865 159.539 59.9375C159.112 60.0833 158.625 60.1562 158.078 60.1562Z" fill="black"/>
</g>
<defs>
<clipPath id="clip0_2736_1019">
<rect width="205" height="120" fill="white"/>
</clipPath>
</defs>
</svg>
