<?xml version="1.0" encoding="UTF-8" standalone="no"?>
<svg
   xmlns:dc="http://purl.org/dc/elements/1.1/"
   xmlns:cc="http://creativecommons.org/ns#"
   xmlns:rdf="http://www.w3.org/1999/02/22-rdf-syntax-ns#"
   xmlns:svg="http://www.w3.org/2000/svg"
   xmlns="http://www.w3.org/2000/svg"
   xmlns:sodipodi="http://sodipodi.sourceforge.net/DTD/sodipodi-0.dtd"
   xmlns:inkscape="http://www.inkscape.org/namespaces/inkscape"
   version="1.1"
   id="svg2"
   xml:space="preserve"
   width="816"
   height="1056"
   viewBox="0 0 816 1056"
   sodipodi:docname="Trustline Logo.ai"><metadata
     id="metadata8"><rdf:RDF><cc:Work
         rdf:about=""><dc:format>image/svg+xml</dc:format><dc:type
           rdf:resource="http://purl.org/dc/dcmitype/StillImage" /></cc:Work></rdf:RDF></metadata><defs
     id="defs6"><clipPath
       clipPathUnits="userSpaceOnUse"
       id="clipPath18"><path
         d="M 0,792 H 612 V 0 H 0 Z"
         id="path16" /></clipPath></defs><sodipodi:namedview
     pagecolor="#ffffff"
     bordercolor="#666666"
     borderopacity="1"
     objecttolerance="10"
     gridtolerance="10"
     guidetolerance="10"
     inkscape:pageopacity="0"
     inkscape:pageshadow="2"
     inkscape:window-width="640"
     inkscape:window-height="480"
     id="namedview4" /><g
     id="g10"
     inkscape:groupmode="layer"
     inkscape:label="Trustline Logo"
     transform="matrix(1.3333333,0,0,-1.3333333,0,1056)"><g
       id="g12"><g
         id="g14"
         clip-path="url(#clipPath18)"><g
           id="g20"
           transform="translate(528.5441,429.0644)"><path
             d="m 0,0 11.252,-0.248 c 1.706,-0.062 3.477,-0.809 4.804,-1.666 1.518,-0.933 6.196,-6.811 6.322,-7.057 0.063,-0.124 0.316,-0.312 0.506,-0.187 l 0.948,0.496 c 0.253,0.123 0.253,0.312 0.19,0.559 -0.19,0.621 -2.971,9.095 -3.224,9.966 -0.064,0.185 -0.19,0.309 -0.506,0.309 -0.316,0 -1.517,-0.124 -2.529,-0.124 -6.257,0 -12.516,-0.061 -18.774,-0.061 h -2.782 c -4.171,0 -6.385,0.185 -7.775,0.185 -0.317,0 -0.444,-0.124 -0.444,-0.309 V 0.247 c 0,-0.371 0.191,-0.433 0.506,-0.433 h 2.277 c 2.338,0 2.97,-0.436 3.223,-2.423 0.063,-0.621 0.19,-8.381 0.19,-13.535 v -6.084 -14.715 c 0,-2.298 -0.253,-2.731 -3.16,-2.731 h -2.53 c -0.441,0 -0.632,-0.062 -0.632,-0.312 v -1.675 c 0,-0.321 0.191,-0.447 0.57,-0.447 1.137,0 3.351,0.189 8.091,0.189 19.66,0 24.654,-0.189 25.286,-0.189 0.759,0 1.201,0.385 1.391,0.943 l 3.351,9.126 c 0.189,0.497 0.189,0.684 -0.127,0.871 l -1.011,0.559 c -0.38,0.186 -0.569,-0.063 -0.759,-0.373 -0.885,-1.428 -4.425,-5.899 -5.184,-6.52 -1.643,-1.366 -4.424,-2.048 -5.5,-2.172 -1.326,-0.124 -4.488,-0.189 -5.562,-0.189 -1.58,0 -3.414,0.189 -4.678,0.436 -1.96,0.373 -3.54,1.616 -3.604,4.842 0,1.243 -0.126,7.267 -0.126,10.619 v 3.85 c 1.011,0 5.372,0 8.345,-0.311 1.642,-0.187 2.339,-1.119 2.718,-2.422 0.189,-0.684 0.569,-2.111 0.695,-2.917 0.064,-0.437 0.19,-0.621 0.505,-0.56 l 1.392,0.186 c 0.253,0.061 0.38,0.188 0.38,0.497 -0.127,1.304 -0.38,4.283 -0.38,6.457 0,0.931 0,6.003 0.189,7.058 0.064,0.249 -0.062,0.496 -0.379,0.496 l -1.581,0.062 c -0.252,0 -0.441,-0.124 -0.441,-0.434 -0.065,-1.179 -0.318,-2.411 -0.506,-3.032 -0.57,-1.916 -1.076,-2.412 -2.908,-2.722 C 7.269,-17.882 0.506,-18.131 0,-18.131 Z m -56.767,-16.577 c 0,-11.053 -0.126,-18.131 -0.253,-19.31 -0.317,-3.042 -1.011,-3.787 -2.845,-3.787 h -2.149 c -0.316,0 -0.379,-0.189 -0.379,-0.375 v -1.612 c 0,-0.321 0.063,-0.447 0.316,-0.447 0.632,0 4.993,0.189 6.322,0.189 1.705,0 5.498,-0.189 6.131,-0.189 0.442,0 0.506,0.126 0.506,0.508 v 1.366 c 0,0.371 -0.064,0.56 -0.506,0.56 h -1.896 c -1.708,0 -2.087,1.177 -2.34,3.6 -0.126,1.242 -0.631,11.361 -0.631,17.137 v 13.782 h 0.379 c 0.378,-0.496 12.011,-14.838 12.706,-15.459 0.378,-0.373 4.993,-6.084 9.42,-11.488 3.918,-4.841 7.648,-9.435 7.711,-9.559 0.19,-0.249 0.759,-1.005 1.517,-1.005 0.253,0 0.316,0.621 0.316,1.501 v 23.222 c 0,4.036 0,10.181 0.254,14.343 0.126,2.357 0.758,3.414 2.465,3.414 h 1.707 c 0.252,0 0.378,0.186 0.378,0.433 v 1.554 c 0,0.247 -0.062,0.433 -0.505,0.433 -0.821,0 -2.339,-0.186 -6.132,-0.186 -4.046,0 -6.069,0.186 -6.953,0.186 -0.253,0 -0.379,-0.124 -0.379,-0.371 V 0.247 c 0,-0.309 0.126,-0.433 0.379,-0.433 h 2.022 c 1.77,0 2.971,-0.871 3.477,-2.423 0.38,-1.055 0.696,-7.14 0.759,-9.559 0.126,-3.105 0.19,-6.149 0.19,-11.673 v -7.389 h -0.253 c -1.518,1.987 -12.2,14.837 -12.896,15.706 -0.695,0.871 -12.959,16.516 -13.276,16.889 -0.505,0.56 -1.011,0.807 -1.833,0.807 -0.759,0 -2.085,-0.124 -4.235,-0.124 -2.15,0 -3.541,0.062 -4.488,0.124 -0.948,0 -1.454,0.062 -1.77,0.062 -0.316,0 -0.379,-0.124 -0.379,-0.371 V 0.247 c 0,-0.186 0.063,-0.433 0.379,-0.433 l 2.592,-0.062 c 2.275,-0.062 4.172,-2.112 4.172,-5.775 z m -23.137,-3.665 c 0,-3.291 -0.191,-16.701 -0.317,-17.632 -0.253,-1.615 -1.579,-1.8 -2.844,-1.8 h -3.54 c -0.316,0 -0.506,-0.124 -0.506,-0.375 v -1.674 c 0,-0.259 0.19,-0.385 0.506,-0.385 0.695,0 3.413,0.189 9.418,0.189 5.502,0 8.029,-0.189 8.788,-0.189 0.379,0 0.569,0.126 0.569,0.385 v 1.613 c 0,0.312 -0.19,0.436 -0.506,0.436 h -2.591 c -2.023,0 -2.971,0.309 -2.971,2.234 0,0.682 -0.191,15.026 -0.191,15.646 v 4.781 c 0,0.744 0.191,14.466 0.191,15.087 0,1.243 0.948,1.74 2.213,1.74 h 2.97 c 0.316,0 0.506,0.124 0.506,0.433 v 1.554 c 0,0.247 -0.127,0.433 -0.443,0.433 -0.885,0 -2.908,-0.186 -8.535,-0.186 -5.878,0 -9.102,0.186 -9.86,0.186 -0.253,0 -0.443,-0.124 -0.443,-0.371 V 0.185 c 0,-0.247 0.19,-0.371 0.506,-0.371 h 3.665 c 2.404,0 3.036,-0.621 3.162,-2.112 0.062,-0.932 0.253,-12.108 0.253,-13.597 z m -39.953,2.671 c 0,-3.789 -0.189,-19.248 -0.189,-20.428 0,-0.807 -0.379,-1.675 -2.719,-1.675 h -3.033 c -0.379,0 -0.444,-0.124 -0.444,-0.436 v -1.551 c 0,-0.321 0.065,-0.447 0.506,-0.447 0.823,0 3.098,0.189 8.092,0.189 6.764,0 24.97,-0.063 26.614,-0.189 0.379,1.687 2.908,11.932 3.098,12.367 0.063,0.372 0.063,0.436 -0.127,0.559 l -1.012,0.372 c -0.252,0.125 -0.379,0 -0.505,-0.247 -0.885,-2.424 -4.679,-9.872 -8.408,-10.432 -1.959,-0.247 -14.476,-0.123 -15.867,0 -0.19,2.546 -0.19,15.956 -0.19,17.014 v 5.338 c 0,4.347 0.19,13.722 0.19,14.528 0,1.802 0.253,2.423 2.213,2.423 h 3.793 c 0.505,0 0.632,0.186 0.632,0.495 v 1.429 c 0,0.31 -0.063,0.496 -0.569,0.496 -0.569,0 -3.224,-0.186 -9.356,-0.186 -5.248,0 -7.522,0.186 -8.219,0.186 -0.379,0 -0.441,-0.124 -0.441,-0.433 V 0.435 c 0,-0.312 0.062,-0.621 0.441,-0.621 h 2.971 c 1.897,0 2.213,-0.621 2.34,-2.236 0.063,-1.117 0.189,-7.699 0.189,-11.671 z m -34.452,1.427 c 0,-1.179 0,-20.24 -0.189,-22.041 -0.064,-0.744 -0.822,-1.489 -2.086,-1.489 h -4.299 c -0.38,0 -0.443,-0.189 -0.443,-0.621 v -1.181 c 0,-0.372 0.063,-0.632 0.569,-0.632 0.885,0 3.54,0.189 9.609,0.189 6.196,0 8.218,-0.189 8.85,-0.189 0.57,0 0.632,0.198 0.632,0.508 v 1.305 c 0,0.432 -0.062,0.621 -0.632,0.621 h -3.983 c -1.516,0 -2.022,0.93 -2.148,2.484 -0.065,1.054 -0.065,18.44 -0.065,19.308 v 17.696 h 1.77 c 3.098,0 9.041,-0.124 10.937,-1.057 2.086,-0.991 3.983,-5.774 4.489,-6.954 0.189,-0.433 0.253,-0.495 0.505,-0.433 l 1.012,0.247 c 0.316,0.062 0.443,0.186 0.379,0.498 -0.505,2.73 -1.707,10.431 -1.833,11.176 -0.126,0.806 -0.253,0.992 -0.569,0.992 -0.253,0 -0.442,-0.062 -0.758,-0.248 l -1.202,-0.744 c -1.074,-0.622 -1.896,-0.807 -3.287,-0.869 -3.098,-0.126 -5.816,-0.374 -12.707,-0.374 h -3.033 c -5.943,0 -8.598,0.248 -11.948,0.374 -1.833,0.062 -2.465,0.247 -3.603,1.054 l -0.823,0.559 c -0.253,0.186 -0.441,0.248 -0.759,0.248 -0.251,0 -0.504,-0.186 -0.631,-0.992 -0.126,-0.683 -2.34,-8.693 -2.982,-10.929 -0.127,-0.371 0.063,-0.432 0.253,-0.496 l 1.148,-0.311 c 0.317,-0.062 0.507,0 0.633,0.311 0.885,1.987 2.782,6.332 5.626,7.203 2.465,0.745 7.965,0.745 9.988,0.745 h 1.58 z m -34.957,-26.709 c 8.344,0 12.895,6.282 12.895,13.61 0,4.098 -1.138,6.517 -2.781,8.442 -2.276,2.732 -5.817,3.788 -10.179,5.153 -1.833,0.56 -5.372,1.926 -7.205,3.727 -1.581,1.613 -1.96,3.662 -1.96,5.4 0,3.168 2.023,7.265 7.649,7.265 2.972,0 5.183,-0.868 6.89,-2.67 2.592,-2.669 3.414,-5.091 3.92,-6.891 0.063,-0.187 0.189,-0.249 0.379,-0.187 l 0.758,0.187 c 0.253,0.062 0.316,0.187 0.316,0.496 -0.063,1.366 -0.884,7.699 -0.884,9.872 0,0.559 -0.19,1.057 -0.506,1.057 -0.316,0 -0.506,-0.124 -0.822,-0.374 l -0.822,-0.745 c -0.316,-0.309 -0.632,-0.371 -1.201,-0.062 -1.075,0.498 -3.856,1.553 -7.46,1.553 -3.413,0 -6.574,-0.87 -8.849,-2.98 -1.96,-1.802 -3.92,-4.843 -3.92,-7.948 0,-4.097 1.075,-7.017 3.161,-9.065 2.718,-2.793 7.27,-4.347 9.229,-5.028 5.057,-1.738 9.736,-4.099 9.736,-10.493 0,-5.589 -4.805,-7.887 -8.598,-7.887 -3.476,0 -6.953,1.677 -8.85,4.597 -2.086,3.164 -2.212,5.215 -2.276,7.199 0,0.374 -0.126,0.499 -0.379,0.499 l -0.948,0.062 c -0.253,0 -0.38,0 -0.443,-0.372 -0.189,-1.802 -0.822,-9.687 -1.074,-11.238 -0.127,-0.683 0.189,-0.995 0.569,-0.995 0.442,0 0.758,0.061 1.138,0.745 0.379,0.621 0.632,1.056 1.011,1.056 0.316,0 0.695,-0.186 1.454,-0.744 2.529,-1.925 5.626,-3.241 10.052,-3.241 m -42.229,0 c -3.286,0 -6.449,0.436 -8.533,1.316 -4.299,1.674 -6.512,4.406 -7.524,8.318 -0.758,2.796 -1.011,6.954 -1.011,15.088 v 14.778 c 0,2.172 -0.442,3.167 -2.402,3.167 h -2.97 c -0.38,0 -0.444,0.124 -0.444,0.558 v 1.366 c 0,0.372 0.064,0.496 0.57,0.496 0.632,0 3.73,-0.186 8.66,-0.186 4.931,0 7.964,0.186 8.661,0.186 0.504,0 0.569,-0.124 0.569,-0.371 V 0.247 c 0,-0.309 -0.065,-0.433 -0.506,-0.433 h -3.161 c -1.833,0 -2.908,-1.18 -3.034,-2.546 -0.065,-0.559 -0.127,-4.906 -0.127,-8.07 v -4.1 c 0,-3.29 0.253,-11.177 0.316,-13.162 0.063,-2.857 0.569,-5.776 2.023,-7.887 2.338,-3.352 6.385,-4.47 10.051,-4.47 3.603,0 7.27,1.18 9.483,3.417 2.464,2.607 3.287,6.332 3.287,10.925 v 13.289 c 0,4.72 -0.127,8.318 -0.316,9.872 -0.19,1.614 -1.201,2.732 -2.845,2.732 h -2.782 c -0.379,0 -0.442,0.186 -0.442,0.495 v 1.492 c 0,0.309 0.063,0.433 0.442,0.433 0.632,0 3.541,-0.186 7.776,-0.186 4.362,0 6.384,0.186 6.953,0.186 0.569,0 0.632,-0.247 0.632,-0.433 V 0.435 c 0,-0.374 -0.063,-0.621 -0.378,-0.621 h -2.592 c -2.339,0 -2.529,-1.74 -2.718,-2.484 -0.127,-0.621 -0.127,-9.438 -0.127,-10.308 0,-0.868 -0.126,-11.735 -0.317,-14.154 -0.379,-5.092 -1.77,-9.004 -5.309,-11.983 -2.529,-2.299 -6.385,-3.738 -11.885,-3.738 m -52.658,40.619 c 0,0.991 0.316,1.674 0.759,1.986 0.569,0.371 1.39,0.495 2.148,0.495 5.247,0 8.029,-0.93 10.494,-2.856 1.834,-1.489 3.161,-4.221 3.161,-7.078 0,-2.608 -2.212,-10.369 -13.717,-10.369 -1.201,0 -1.897,0.063 -2.845,0.25 z m -5.69,-17.45 c 0,-5.897 0,-11.734 -0.126,-17.879 0,-1.678 -1.075,-2.111 -2.466,-2.111 h -2.592 c -0.316,0 -0.316,-0.189 -0.316,-0.498 V -41.6 c 0,-0.31 0,-0.508 0.506,-0.508 0.696,0 2.15,0.189 7.903,0.189 6.005,0 7.585,-0.189 8.28,-0.189 0.632,0 0.695,0.126 0.695,0.571 v 1.365 c 0,0.309 -0.063,0.498 -0.504,0.498 h -3.983 c -0.948,0 -1.454,1.116 -1.58,2.42 -0.065,0.931 -0.127,7.885 -0.127,11.549 v 3.477 c 0.885,0.187 1.517,0.187 2.086,0.187 3.666,0 5.183,-1.677 6.827,-3.602 0.758,-0.868 3.793,-5.339 4.046,-5.775 0.316,-0.495 3.73,-6.393 4.236,-7.14 0.569,-0.807 1.959,-2.918 2.655,-3.55 0.948,0.063 3.287,0.189 5.119,0.189 2.783,0 4.426,-0.189 4.931,-0.189 0.443,0 0.506,0.198 0.506,0.571 v 1.365 c 0,0.248 -0.063,0.498 -0.506,0.498 -1.769,0 -3.224,0.124 -4.55,1.054 -1.201,0.871 -5.247,6.518 -5.563,7.139 -0.506,0.809 -4.995,7.142 -5.753,7.948 -0.506,0.684 -1.391,1.802 -2.908,2.36 v 0.125 c 8.09,1.739 11.694,4.655 11.694,12.418 0,2.296 -1.2,5.091 -3.286,7.078 -2.403,2.234 -6.575,3.786 -11.821,3.786 -1.139,0 -7.019,-0.186 -10.558,-0.186 -5.31,0 -7.27,0.186 -7.839,0.186 -0.316,0 -0.379,-0.124 -0.379,-0.433 V 0.247 c 0,-0.247 0.063,-0.433 0.379,-0.433 h 2.529 c 1.581,0 2.339,-1.057 2.402,-3.105 0.063,-1.801 0.063,-5.775 0.063,-10.37 z m -34.388,3.54 c 0,-1.179 0,-20.24 -0.191,-22.041 -0.062,-0.744 -0.822,-1.489 -2.086,-1.489 h -4.298 c -0.379,0 -0.444,-0.189 -0.444,-0.621 v -1.181 c 0,-0.372 0.065,-0.632 0.57,-0.632 0.886,0 3.54,0.189 9.609,0.189 6.195,0 8.218,-0.189 8.85,-0.189 0.569,0 0.631,0.198 0.631,0.508 v 1.305 c 0,0.432 -0.062,0.621 -0.631,0.621 h -3.983 c -1.517,0 -2.022,0.93 -2.149,2.484 -0.063,1.054 -0.063,18.44 -0.063,19.308 v 17.696 h 1.77 c 3.098,0 9.039,-0.124 10.937,-1.057 2.085,-0.991 3.983,-5.774 4.488,-6.954 0.189,-0.433 0.252,-0.495 0.506,-0.433 l 1.012,0.247 c 0.315,0.062 0.441,0.186 0.379,0.498 -0.506,2.73 -1.708,10.431 -1.835,11.176 -0.126,0.806 -0.253,0.992 -0.567,0.992 -0.254,0 -0.444,-0.062 -0.759,-0.248 l -1.201,-0.744 c -1.076,-0.622 -1.898,-0.807 -3.289,-0.869 -3.096,-0.126 -5.815,-0.374 -12.706,-0.374 h -3.033 c -5.944,0 -8.598,0.248 -11.948,0.374 -1.834,0.062 -2.466,0.247 -3.604,1.054 l -0.821,0.559 c -0.253,0.186 -0.443,0.248 -0.759,0.248 -0.253,0 -0.506,-0.186 -0.632,-0.992 -0.127,-0.683 -2.339,-8.693 -2.982,-10.929 -0.126,-0.371 0.063,-0.432 0.253,-0.496 l 1.148,-0.311 c 0.316,-0.062 0.506,0 0.632,0.311 0.885,1.987 2.782,6.332 5.627,7.203 2.466,0.745 7.965,0.745 9.988,0.745 h 1.581 z"
             style="fill:#127bca;fill-opacity:1;fill-rule:evenodd;stroke:none"
             id="path22" /></g><path
           d="M 89.979,434.074 H 53.493 v -38.018 h 36.486 z"
           style="fill:#127bca;fill-opacity:1;fill-rule:evenodd;stroke:none"
           id="path24" /><g
           id="g26"
           transform="translate(124.6113,393.9667)"><path
             d="M 0,0 V -6.649 -33.707 H -30.202 V -6.649 0 39.473 H 0 Z"
             style="fill:#127bca;fill-opacity:1;fill-rule:evenodd;stroke:none"
             id="path28" /></g><path
           d="m 128.963,433.44 h 36.788 v -34.993 h -36.788 z"
           style="fill:#127bca;fill-opacity:1;fill-rule:evenodd;stroke:none"
           id="path30" /><path
           d="m 556.168,360.374 h 2.339 v -2.184 h -2.339 z m -14.969,-0.341 h 3.569 c 1.099,0 1.967,0.094 2.594,0.287 0.626,0.192 1.124,0.46 1.498,0.809 0.525,0.488 0.933,1.148 1.226,1.973 0.292,0.828 0.439,1.827 0.439,3.008 0,1.631 -0.288,2.884 -0.859,3.76 -0.576,0.88 -1.272,1.465 -2.093,1.762 -0.592,0.214 -1.549,0.32 -2.861,0.32 h -3.513 z m -2.21,-1.842 v 15.602 h 5.754 c 1.3,0 2.293,-0.075 2.977,-0.224 0.958,-0.204 1.775,-0.578 2.45,-1.116 0.881,-0.697 1.542,-1.584 1.978,-2.666 0.441,-1.083 0.657,-2.318 0.657,-3.71 0,-1.184 -0.146,-2.234 -0.447,-3.149 -0.295,-0.916 -0.674,-1.675 -1.14,-2.274 -0.463,-0.599 -0.968,-1.072 -1.521,-1.413 -0.549,-0.346 -1.214,-0.606 -1.993,-0.785 -0.783,-0.178 -1.677,-0.265 -2.684,-0.265 z m -15.525,0 v 15.602 h 12.08 v -1.841 h -9.871 v -4.778 h 9.246 v -1.83 h -9.246 v -5.311 h 10.261 v -1.842 z m -6.156,15.602 h 2.211 V 358.19 h -2.211 z m -14.525,-15.602 v 15.602 h 11.276 v -1.841 h -9.063 v -4.832 h 7.842 v -1.842 h -7.842 v -7.087 z m -6.222,15.602 h 2.211 V 358.19 h -2.211 z m -13.454,-15.602 v 15.602 h 2.213 v -13.76 h 8.23 v -1.842 z m -13.268,8.184 h 4.322 c 1.428,0 2.444,0.248 3.043,0.745 0.599,0.498 0.899,1.196 0.899,2.097 0,0.653 -0.176,1.212 -0.529,1.677 -0.354,0.466 -0.817,0.771 -1.396,0.919 -0.374,0.092 -1.059,0.139 -2.064,0.139 h -4.275 z m -2.211,-8.184 v 15.602 h 6.304 c 1.109,0 1.958,-0.05 2.54,-0.149 0.821,-0.126 1.511,-0.37 2.066,-0.729 0.553,-0.357 1,-0.861 1.339,-1.505 0.339,-0.647 0.507,-1.354 0.507,-2.128 0,-1.326 -0.453,-2.453 -1.355,-3.372 -0.906,-0.915 -2.541,-1.376 -4.903,-1.376 h -4.287 v -6.343 z m -19.518,0 v 15.602 h 3.331 l 3.952,-11.047 c 0.367,-1.027 0.636,-1.798 0.798,-2.31 0.191,0.567 0.487,1.402 0.892,2.503 l 4,10.854 h 2.977 v -15.602 h -2.132 v 13.06 l -4.857,-13.06 h -1.996 l -4.833,13.281 v -13.281 z m -6.039,15.602 h 2.21 V 358.19 h -2.21 z m -16.7,-10.589 2.086,0.171 c 0.097,-0.782 0.327,-1.421 0.688,-1.922 0.364,-0.501 0.922,-0.905 1.681,-1.213 0.76,-0.309 1.616,-0.462 2.565,-0.462 0.844,0 1.587,0.116 2.233,0.349 0.646,0.236 1.129,0.556 1.444,0.963 0.316,0.411 0.475,0.853 0.475,1.336 0,0.491 -0.152,0.916 -0.459,1.283 -0.304,0.367 -0.805,0.672 -1.502,0.919 -0.452,0.163 -1.441,0.417 -2.977,0.763 -1.533,0.345 -2.611,0.668 -3.226,0.973 -0.797,0.389 -1.393,0.876 -1.786,1.454 -0.388,0.577 -0.583,1.224 -0.583,1.943 0,0.784 0.237,1.523 0.716,2.206 0.479,0.686 1.178,1.205 2.096,1.561 0.923,0.353 1.942,0.531 3.067,0.531 1.241,0 2.331,-0.185 3.28,-0.559 0.946,-0.372 1.674,-0.92 2.183,-1.643 0.505,-0.722 0.783,-1.544 0.821,-2.458 l -2.121,-0.15 c -0.116,0.985 -0.501,1.733 -1.16,2.235 -0.658,0.504 -1.626,0.755 -2.91,0.755 -1.339,0 -2.311,-0.23 -2.926,-0.686 -0.611,-0.459 -0.918,-1.011 -0.918,-1.653 0,-0.564 0.218,-1.025 0.649,-1.384 0.428,-0.364 1.537,-0.734 3.335,-1.112 1.799,-0.382 3.031,-0.713 3.701,-0.996 0.973,-0.421 1.692,-0.952 2.155,-1.59 0.464,-0.644 0.693,-1.385 0.693,-2.221 0,-0.831 -0.253,-1.612 -0.763,-2.346 -0.509,-0.734 -1.241,-1.305 -2.195,-1.715 -0.953,-0.407 -2.026,-0.61 -3.217,-0.61 -1.514,0 -2.783,0.203 -3.801,0.617 -1.024,0.411 -1.826,1.028 -2.409,1.857 -0.58,0.824 -0.888,1.761 -0.915,2.804 m -11.902,-2.83 h 2.339 v -2.184 h -2.339 z m -16.641,2.83 2.085,0.171 c 0.097,-0.782 0.328,-1.421 0.689,-1.922 0.362,-0.501 0.922,-0.905 1.681,-1.213 0.759,-0.309 1.615,-0.462 2.564,-0.462 0.844,0 1.588,0.116 2.234,0.349 0.645,0.236 1.127,0.556 1.443,0.963 0.315,0.411 0.476,0.853 0.476,1.336 0,0.491 -0.153,0.916 -0.46,1.283 -0.304,0.367 -0.806,0.672 -1.502,0.919 -0.451,0.163 -1.44,0.417 -2.977,0.763 -1.533,0.345 -2.61,0.668 -3.225,0.973 -0.798,0.389 -1.393,0.876 -1.786,1.454 -0.389,0.577 -0.584,1.224 -0.584,1.943 0,0.784 0.237,1.523 0.716,2.206 0.479,0.686 1.179,1.205 2.097,1.561 0.923,0.353 1.942,0.531 3.066,0.531 1.242,0 2.332,-0.185 3.281,-0.559 0.945,-0.372 1.673,-0.92 2.182,-1.643 0.506,-0.722 0.782,-1.544 0.821,-2.458 l -2.12,-0.15 c -0.117,0.985 -0.503,1.733 -1.16,2.235 -0.658,0.504 -1.626,0.755 -2.911,0.755 -1.338,0 -2.31,-0.23 -2.926,-0.686 -0.611,-0.459 -0.918,-1.011 -0.918,-1.653 0,-0.564 0.218,-1.025 0.65,-1.384 0.428,-0.364 1.537,-0.734 3.335,-1.112 1.797,-0.382 3.031,-0.713 3.7,-0.996 0.974,-0.421 1.693,-0.952 2.155,-1.59 0.463,-0.644 0.694,-1.385 0.694,-2.221 0,-0.831 -0.253,-1.612 -0.763,-2.346 -0.51,-0.734 -1.241,-1.305 -2.195,-1.715 -0.953,-0.407 -2.026,-0.61 -3.217,-0.61 -1.514,0 -2.783,0.203 -3.803,0.617 -1.022,0.411 -1.824,1.028 -2.408,1.857 -0.58,0.824 -0.888,1.761 -0.914,2.804 m -11.836,1.395 h 5.669 l -1.748,4.32 c -0.529,1.31 -0.925,2.39 -1.182,3.236 -0.214,-1.002 -0.513,-1.995 -0.903,-2.982 z m -4.822,-6.408 6.421,15.602 h 2.381 l 6.84,-15.602 h -2.521 l -1.949,4.726 h -6.989 l -1.833,-4.726 z m -13.688,0 v 15.602 h 12.081 v -1.841 h -9.872 v -4.778 h 9.246 v -1.83 h -9.246 v -5.311 h 10.262 v -1.842 z m -14.697,1.842 h 3.568 c 1.101,0 1.969,0.094 2.596,0.287 0.625,0.192 1.124,0.46 1.498,0.809 0.525,0.488 0.933,1.148 1.226,1.973 0.291,0.828 0.439,1.827 0.439,3.008 0,1.631 -0.288,2.884 -0.86,3.76 -0.576,0.88 -1.273,1.465 -2.093,1.762 -0.592,0.214 -1.549,0.32 -2.86,0.32 h -3.514 z m -2.211,-1.842 v 15.602 h 5.756 c 1.299,0 2.291,-0.075 2.977,-0.224 0.957,-0.204 1.774,-0.578 2.45,-1.116 0.881,-0.697 1.541,-1.584 1.977,-2.666 0.44,-1.083 0.658,-2.318 0.658,-3.71 0,-1.184 -0.148,-2.234 -0.448,-3.149 -0.296,-0.916 -0.673,-1.675 -1.14,-2.274 -0.463,-0.599 -0.969,-1.072 -1.521,-1.413 -0.548,-0.346 -1.213,-0.606 -1.992,-0.785 -0.783,-0.178 -1.678,-0.265 -2.685,-0.265 z m -6.108,15.602 h 2.21 V 358.19 h -2.21 z m -16.45,-15.602 v 13.761 h -5.506 v 1.841 h 13.245 v -1.841 h -5.529 v -13.761 z m -21.137,0 v 15.602 h 2.268 l 8.779,-12.249 v 12.249 h 2.12 v -15.602 h -2.268 l -8.779,12.261 v -12.261 z m -15.502,0 v 15.602 h 12.082 v -1.841 h -9.873 v -4.778 h 9.246 v -1.83 h -9.246 v -5.311 h 10.262 v -1.842 z m -19.565,0 v 15.602 h 3.331 l 3.953,-11.047 c 0.367,-1.027 0.635,-1.798 0.798,-2.31 0.19,0.567 0.486,1.402 0.892,2.503 l 3.999,10.854 h 2.977 v -15.602 h -2.133 v 13.06 l -4.856,-13.06 h -1.997 l -4.833,13.281 v -13.281 z m -9.938,0 v 13.761 h -5.505 v 1.841 h 13.245 v -1.841 h -5.529 v -13.761 z m -20.575,5.013 2.085,0.171 c 0.097,-0.782 0.327,-1.421 0.689,-1.922 0.362,-0.501 0.922,-0.905 1.68,-1.213 0.759,-0.309 1.616,-0.462 2.564,-0.462 0.845,0 1.589,0.116 2.234,0.349 0.646,0.236 1.128,0.556 1.444,0.963 0.315,0.411 0.475,0.853 0.475,1.336 0,0.491 -0.152,0.916 -0.459,1.283 -0.304,0.367 -0.806,0.672 -1.502,0.919 -0.451,0.163 -1.44,0.417 -2.977,0.763 -1.533,0.345 -2.611,0.668 -3.226,0.973 -0.797,0.389 -1.393,0.876 -1.786,1.454 -0.388,0.577 -0.583,1.224 -0.583,1.943 0,0.784 0.237,1.523 0.715,2.206 0.48,0.686 1.18,1.205 2.098,1.561 0.922,0.353 1.942,0.531 3.066,0.531 1.242,0 2.331,-0.185 3.281,-0.559 0.945,-0.372 1.673,-0.92 2.182,-1.643 0.506,-0.722 0.782,-1.544 0.821,-2.458 l -2.121,-0.15 c -0.116,0.985 -0.502,1.733 -1.159,2.235 -0.658,0.504 -1.627,0.755 -2.911,0.755 -1.338,0 -2.31,-0.23 -2.927,-0.686 -0.61,-0.459 -0.917,-1.011 -0.917,-1.653 0,-0.564 0.218,-1.025 0.65,-1.384 0.428,-0.364 1.537,-0.734 3.335,-1.112 1.797,-0.382 3.031,-0.713 3.699,-0.996 0.973,-0.421 1.693,-0.952 2.156,-1.59 0.463,-0.644 0.693,-1.385 0.693,-2.221 0,-0.831 -0.252,-1.612 -0.763,-2.346 -0.509,-0.734 -1.24,-1.305 -2.194,-1.715 -0.953,-0.407 -2.026,-0.61 -3.218,-0.61 -1.513,0 -2.782,0.203 -3.802,0.617 -1.022,0.411 -1.824,1.028 -2.409,1.857 -0.579,0.824 -0.887,1.761 -0.913,2.804 m -14.774,-5.013 v 15.602 h 12.08 v -1.841 h -9.871 v -4.778 h 9.246 v -1.83 h -9.246 v -5.311 h 10.261 v -1.842 z m -10.845,0 -6.474,15.602 h 2.397 l 4.342,-11.334 c 0.351,-0.908 0.642,-1.762 0.875,-2.553 0.262,0.85 0.561,1.7 0.903,2.553 l 4.515,11.334 h 2.256 l -6.544,-15.602 z m -21.657,0 v 15.602 h 2.268 l 8.778,-12.249 v 12.249 h 2.12 v -15.602 h -2.268 l -8.779,12.261 v -12.261 z m -6.086,15.602 h 2.21 V 358.19 h -2.21 z"
           style="fill:#656263;fill-opacity:1;fill-rule:evenodd;stroke:none"
           id="path32" /><path
           d="m 128.963,394.764 h 36.788 V 360.22 h -36.788 z"
           style="fill:#127bca;fill-opacity:1;fill-rule:evenodd;stroke:none"
           id="path34" /></g></g></g></svg>
