<svg width="105" height="30" viewBox="0 0 105 30" fill="none" xmlns="http://www.w3.org/2000/svg">
<path d="M105 27.0139C105.001 27.4086 104.923 27.7995 104.771 28.1639C104.619 28.5283 104.397 28.8589 104.116 29.1367C103.836 29.4144 103.503 29.6337 103.137 29.7818C102.772 29.9299 102.38 30.0039 101.985 29.9995H2.94335C2.55457 30.0067 2.16832 29.9354 1.80775 29.7899C1.44718 29.6443 1.1197 29.4274 0.844926 29.1522C0.570154 28.8771 0.353744 28.5493 0.208659 28.1885C0.0635751 27.8277 -0.00719854 27.4413 0.000577916 27.0525V2.93828C-0.00667715 2.55005 0.0645231 2.16436 0.209911 1.80431C0.355299 1.44427 0.571881 1.11729 0.846674 0.842968C1.12147 0.568651 1.44882 0.352646 1.8091 0.2079C2.16938 0.0631534 2.55517 -0.00735317 2.94335 0.000606066H101.985C103.657 0.000606066 104.985 1.2716 104.985 2.94227V27.0565L105 27.0139Z" fill="#1C1A16"/>
<path d="M21.7802 5.9812H11.5371V25.7096H21.7802V5.9812Z" fill="url(#paint0_linear_1343_3870)"/>
<path d="M24.531 5.96252H11.874V15.8041H24.531V5.96252Z" fill="url(#paint1_linear_1343_3870)"/>
<path d="M24.5311 15.8041H11.7915V25.7482H24.5311V15.8041Z" fill="url(#paint2_linear_1343_3870)"/>
<path d="M28.9567 13.0756H21.7803V18.5326H28.9567V13.0756Z" fill="url(#paint3_linear_1343_3870)"/>
<path d="M76.0241 19.7742C75.6618 19.7789 75.3027 19.7067 74.9704 19.5624C74.6508 19.4182 74.3751 19.1921 74.1711 18.9069H74.1058C74.1482 19.2321 74.17 19.5596 74.1711 19.8875V22.3189H73.2705V13.759H73.9979L74.1204 14.5677H74.1644C74.3658 14.2689 74.6412 14.0275 74.9637 13.8669C75.2937 13.7178 75.6527 13.644 76.0148 13.6511C76.7981 13.6511 77.4025 13.9176 77.8279 14.4505C78.2533 14.9834 78.4664 15.7343 78.4673 16.7033C78.4673 17.6732 78.2511 18.4282 77.8186 18.9682C77.386 19.5082 76.7848 19.7747 76.0148 19.7676L76.0241 19.7742ZM75.8816 14.4052C75.2768 14.4052 74.8403 14.5721 74.572 14.9061C74.3038 15.2401 74.1653 15.773 74.1564 16.5048V16.7033C74.1564 17.5329 74.295 18.1271 74.572 18.4859C74.8491 18.8448 75.2932 19.0224 75.9042 19.0188C76.1403 19.0265 76.3744 18.9736 76.5843 18.8651C76.7942 18.7567 76.9728 18.5963 77.1032 18.3993C77.3918 17.9863 77.5366 17.4166 77.5375 16.69C77.5384 15.9635 77.3936 15.3986 77.1032 14.9954C76.9648 14.8034 76.7807 14.649 76.5677 14.5459C76.3546 14.4429 76.1193 14.3945 75.8829 14.4052" fill="#FBFBFB"/>
<path d="M80.5467 11.2797H79.6528V19.6677H80.5467V11.2797Z" fill="#FBFBFB"/>
<path d="M85.6912 19.6664L85.5141 18.8257H85.4701C85.2415 19.144 84.9412 19.4042 84.5935 19.5851C84.2452 19.726 83.8714 19.7927 83.4958 19.781C82.9106 19.781 82.4518 19.6304 82.1197 19.3293C81.7875 19.0282 81.621 18.5988 81.6201 18.041C81.6201 16.8473 82.5744 16.222 84.483 16.1652L85.4848 16.1318V15.7655C85.4848 15.3018 85.3862 14.9661 85.1864 14.7383C84.9865 14.5105 84.6668 14.4079 84.2299 14.4079C83.7369 14.4079 83.1796 14.5584 82.558 14.8595L82.2835 14.1761C82.5861 14.0134 82.9073 13.8882 83.24 13.803C83.5807 13.7147 83.9312 13.67 84.2831 13.6698C84.9879 13.6698 85.5087 13.8257 85.8498 14.1388C86.1908 14.4518 86.3587 14.9528 86.3587 15.6429V19.6744L85.6912 19.6664ZM83.6703 19.0362C84.2272 19.0362 84.6646 18.8834 84.9825 18.5779C85.3005 18.2724 85.4594 17.8447 85.4594 17.2949V16.762L84.5642 16.7993C83.8537 16.8242 83.3408 16.9348 83.0256 17.1311C82.8716 17.2264 82.7464 17.3618 82.6634 17.5228C82.5803 17.6838 82.5425 17.8642 82.554 18.045C82.5446 18.1826 82.5662 18.3206 82.6171 18.4488C82.6681 18.577 82.7471 18.6921 82.8484 18.7857C83.0824 18.9674 83.3747 19.0574 83.6703 19.0389" fill="#FBFBFB"/>
<path d="M86.8745 13.759H87.8337L89.1232 17.1284C89.3379 17.6709 89.516 18.2273 89.6561 18.7937H89.6987C89.7454 18.6099 89.8439 18.2968 89.9918 17.8531C90.1397 17.4095 90.6286 16.0452 91.4572 13.759H92.4164L89.8772 20.4857C89.6259 21.151 89.3319 21.623 88.9953 21.9019C88.6469 22.1852 88.2079 22.3333 87.7591 22.3189C87.4869 22.319 87.2156 22.2881 86.9504 22.227V21.5102C87.1694 21.5562 87.3928 21.5781 87.6165 21.5755C88.2311 21.5755 88.6694 21.2304 88.9314 20.5403L89.2604 19.6997L86.8745 13.759Z" fill="#FBFBFB"/>
<path d="M59.4488 14.3079C59.7326 14.5424 60.3254 15.0367 60.3254 15.9759C60.3254 16.8899 59.8072 17.3242 59.2876 17.7305C59.1264 17.8917 58.9426 18.0649 58.9426 18.3367C58.9426 18.6085 59.1264 18.7564 59.2636 18.8696L59.7086 19.2147C60.2521 19.6717 60.7464 20.0927 60.7464 20.9467C60.7464 22.1084 59.622 23.2821 57.4972 23.2821C55.7054 23.2821 54.8408 22.4295 54.8408 21.5142C54.8408 21.0692 55.062 20.4404 55.792 20.0061C56.5567 19.5371 57.5958 19.4732 58.1513 19.4385C57.9781 19.216 57.7809 18.9815 57.7809 18.5992C57.7846 18.431 57.827 18.266 57.9048 18.1169C57.7716 18.1289 57.6317 18.1409 57.5052 18.1409C56.197 18.1409 55.455 17.1643 55.455 16.2011C55.4612 15.8846 55.5351 15.5731 55.6716 15.2875C55.808 15.0019 56.004 14.7488 56.2463 14.5451C56.9497 13.9642 57.7903 13.8656 58.4577 13.8656H61.0021L60.2148 14.3079H59.4488ZM58.5709 19.7942C58.4767 19.7837 58.3819 19.7797 58.2872 19.7822C57.8478 19.7905 57.4114 19.8573 56.9896 19.9808C56.7232 20.078 55.9239 20.3804 55.9239 21.2531C55.9239 22.1257 56.7765 22.7612 58.098 22.7612C59.2836 22.7612 59.9151 22.191 59.9151 21.4289C59.9151 20.7974 59.5074 20.4644 58.5669 19.7969L58.5709 19.7942ZM58.9266 17.4494C59.2104 17.1643 59.2343 16.77 59.2343 16.5475C59.2343 15.6575 58.7015 14.2733 57.6784 14.2733C57.5133 14.2756 57.3507 14.3132 57.2014 14.3836C57.052 14.4539 56.9194 14.5553 56.8124 14.681C56.6217 14.9467 56.5277 15.2697 56.546 15.5962C56.546 16.4236 57.0283 17.7958 58.0913 17.7958C58.4047 17.7881 58.7041 17.6647 58.9319 17.4494" fill="#FBFBFB"/>
<path d="M51.6705 19.5971C49.7096 19.5971 48.6611 18.0677 48.6611 16.6847C48.6611 15.0687 49.98 13.6885 51.8584 13.6885C52.2447 13.6799 52.6288 13.749 52.988 13.8918C53.3471 14.0346 53.6738 14.2481 53.9488 14.5196C54.2238 14.7912 54.4414 15.1152 54.5888 15.4725C54.7361 15.8298 54.8101 16.213 54.8065 16.5995C54.8065 18.0543 53.6848 19.5971 51.6732 19.5971H51.6705ZM53.2145 18.5979C53.5116 18.1982 53.5862 17.7093 53.5862 17.2283C53.5862 16.1425 53.068 14.0695 51.5373 14.0695C51.1294 14.0735 50.7361 14.2223 50.4276 14.4892C49.9467 14.9208 49.8601 15.4644 49.8601 15.9946C49.8601 17.215 50.4649 19.2254 51.9569 19.2254C52.2008 19.2254 52.4414 19.1686 52.6596 19.0597C52.8778 18.9509 53.0678 18.7927 53.2145 18.5979" fill="#FBFBFB"/>
<path d="M44.9844 19.5971C43.0234 19.5971 41.9736 18.0677 41.9736 16.6847C41.9736 15.0687 43.2952 13.6885 45.1709 13.6885C45.5572 13.6799 45.9413 13.749 46.3005 13.8918C46.6596 14.0346 46.9863 14.2481 47.2613 14.5196C47.5363 14.7912 47.7539 15.1152 47.9013 15.4725C48.0486 15.8298 48.1226 16.213 48.119 16.5995C48.119 18.0543 46.9973 19.5971 44.9857 19.5971H44.9844ZM46.5283 18.5979C46.8241 18.1982 46.8974 17.7093 46.8974 17.2283C46.8974 16.1425 46.3791 14.0695 44.8498 14.0695C44.4419 14.0735 44.0486 14.2223 43.7401 14.4892C43.2592 14.9208 43.1726 15.4644 43.1726 15.9946C43.1726 17.215 43.7761 19.2254 45.2694 19.2254C45.5135 19.2254 45.7543 19.1687 45.9727 19.0598C46.1912 18.9509 46.3814 18.7928 46.5283 18.5979Z" fill="#FBFBFB"/>
<path d="M41.0317 19.4039L39.2586 19.8129C38.5831 19.9363 37.8989 20.0067 37.2124 20.0234C33.7887 20.0234 32.4858 17.5054 32.4858 15.5336C32.4858 13.1276 34.3349 10.8947 37.4975 10.8947C38.1389 10.898 38.777 10.9877 39.3945 11.1611C39.9834 11.3102 40.5389 11.5692 41.0317 11.9245L40.002 12.9037L39.5664 13.0036L39.8767 12.5067C39.4558 12.0977 38.6858 11.341 37.2231 11.341C35.2634 11.341 33.7874 12.8305 33.7874 15.0007C33.7874 17.3322 35.4739 19.5305 38.1769 19.5305C38.7186 19.5438 39.2566 19.4378 39.7529 19.2201V17.2216L37.8798 17.3202L38.8723 16.7873H41.5007L41.1796 17.0964C41.1462 17.1191 41.1179 17.1485 41.0964 17.1826C41.0748 17.2168 41.0605 17.255 41.0544 17.2949C41.0424 17.4068 41.0304 17.7679 41.0304 17.8904L41.0317 19.4039Z" fill="#FBFBFB"/>
<path d="M63.3693 19.0522C62.959 19.0149 62.8737 18.9403 62.8737 18.4554V11.4303C62.8737 11.4036 62.8737 11.377 62.8804 11.3503C62.931 10.9173 63.0549 10.8427 63.4399 10.6189H61.6654L60.7329 11.0652H61.6801V18.7245C61.6801 18.9709 61.6321 19.0096 61.3457 19.3813H63.5451L64.0047 19.1148C63.7942 19.0882 63.5824 19.0762 63.3719 19.0522" fill="#FBFBFB"/>
<path d="M68.4159 19.1601C68.2827 19.2347 68.1495 19.3213 68.0163 19.3826C67.6378 19.545 67.229 19.6245 66.8173 19.6157C66.233 19.6421 65.6566 19.4733 65.1787 19.1361C64.3048 18.5193 63.9238 17.4601 63.9238 16.5369C63.9238 14.6277 65.4745 13.6911 66.744 13.6911C67.1911 13.6855 67.6309 13.805 68.0136 14.0362C68.4439 14.3194 68.7513 14.7548 68.8742 15.2552L65.9807 16.4263L65.0322 16.4995C65.3386 18.0636 66.399 18.9749 67.5633 18.9749C68.1921 18.9749 68.6477 18.7538 69.066 18.5446L68.4159 19.1601ZM67.2583 15.4897C67.4927 15.4031 67.6153 15.3285 67.6153 15.1566C67.6153 14.665 67.0611 14.0908 66.3963 14.0908C65.9021 14.0908 64.9789 14.4732 64.9789 15.8028C64.9789 16.0119 65.0042 16.2344 65.0175 16.4569L67.2583 15.4897Z" fill="#FBFBFB"/>
<path d="M69.6055 13.775V14.589H69.5056V13.775H69.2378V13.691H69.8732V13.775H69.6055Z" fill="#FBFBFB"/>
<path d="M70.7124 14.589V13.7683H70.7084L70.458 14.589H70.3807L70.1276 13.7683H70.1249V14.589H70.0356V13.691H70.1888L70.418 14.4158H70.4206L70.6458 13.691H70.8016V14.589H70.7124Z" fill="#FBFBFB"/>
<path d="M34.9504 8.47915H34.3336C34.2969 8.2345 34.238 7.9937 34.1578 7.75972H33.2679C33.1842 7.99304 33.1235 8.234 33.0867 8.47915H32.5059C32.5059 8.4303 32.6555 8.01951 32.9548 7.24679C33.2541 6.47407 33.4042 6.04907 33.4051 5.9718H34.1324C34.1324 6.04463 34.2683 6.46341 34.5401 7.22814C34.8119 7.99287 34.9477 8.40987 34.9477 8.47915H34.9504ZM34.0578 7.39201C33.9296 7.03943 33.8194 6.68059 33.7275 6.31686H33.7048C33.6093 6.68074 33.4954 7.03958 33.3638 7.39201H34.0578Z" fill="#FCFCFD"/>
<path d="M37.4345 8.47913H36.9589C36.9589 8.42672 36.7812 8.14872 36.426 7.64512C36.057 7.11221 35.8452 6.7525 35.7946 6.55798H35.7639C35.7941 6.81091 35.8102 7.06533 35.8119 7.32005C35.8119 7.63713 35.8207 8.02349 35.8385 8.47913H35.3643C35.3838 8.08211 35.3936 7.64512 35.3936 7.16817C35.3936 6.69121 35.3838 6.29153 35.3643 5.96912H35.9371C35.9371 6.03662 36.0956 6.3084 36.4127 6.78447C36.7502 7.28807 36.9438 7.63002 36.9935 7.81032H37.0228C36.9942 7.55461 36.9791 7.29757 36.9775 7.04027C36.9775 6.69299 36.9682 6.33771 36.9495 5.97445H37.4345C37.4158 6.29286 37.4065 6.69254 37.4065 7.1735C37.4065 7.65445 37.4158 8.09277 37.4345 8.48446" fill="#FCFCFD"/>
<path d="M40.2246 7.13893C40.2297 7.48966 40.1049 7.82989 39.8742 8.09417C39.7519 8.23188 39.6001 8.34018 39.4301 8.41101C39.2601 8.48183 39.0763 8.51334 38.8924 8.50318C38.7015 8.50318 38.4395 8.49518 38.1064 8.4792C38.1224 8.0915 38.1318 7.65452 38.1318 7.16824C38.1318 6.68195 38.1224 6.30226 38.1064 5.96919H38.4435C38.4981 5.96919 38.5767 5.96919 38.6899 5.96919L38.9031 5.96252C39.3667 5.96252 39.7028 6.07843 39.9115 6.31025C40.1185 6.53706 40.2305 6.83461 40.2246 7.14159V7.13893ZM39.6984 7.22552C39.7056 6.99822 39.6287 6.77624 39.4826 6.60202C39.3988 6.51326 39.2962 6.44444 39.1823 6.40062C39.0684 6.35681 38.9461 6.33913 38.8245 6.34889C38.7483 6.35017 38.6722 6.35595 38.5967 6.3662C38.61 6.622 38.6167 6.89112 38.6167 7.16557C38.6167 7.47199 38.6233 7.77709 38.6353 8.07818C38.7177 8.09517 38.8016 8.10365 38.8858 8.10349C39.0012 8.11251 39.1171 8.09389 39.2239 8.04917C39.3307 8.00446 39.4253 7.93493 39.4999 7.84636C39.6347 7.66598 39.7047 7.44532 39.6984 7.22019" fill="#FCFCFD"/>
<path d="M42.7983 8.47919H42.2308C42.1503 8.18642 42.0354 7.90423 41.8885 7.63852C41.842 7.58272 41.7827 7.53903 41.7156 7.51118C41.6486 7.48334 41.5758 7.47217 41.5035 7.47865H41.289C41.289 7.80905 41.289 8.14478 41.3063 8.47785H40.7734C40.7903 8.08972 40.7987 7.65273 40.7987 7.16689C40.7987 6.69971 40.7903 6.30002 40.7734 5.96784H41.1065H41.3489C41.4715 5.96784 41.5847 5.96118 41.6886 5.96118C42.2775 5.96118 42.5719 6.16324 42.5719 6.56737C42.5719 6.88578 42.404 7.1096 42.0683 7.23351V7.26282C42.2169 7.31554 42.3392 7.42399 42.4093 7.56524C42.565 7.8596 42.6985 8.16509 42.809 8.47919H42.7983ZM42.087 6.70726C42.087 6.45235 41.9227 6.32489 41.5941 6.32489C41.4869 6.3239 41.3799 6.33282 41.2743 6.35154C41.2877 6.55005 41.2957 6.80984 41.2957 7.12959H41.4742C41.8836 7.12959 42.0879 6.98748 42.087 6.70326" fill="#FCFCFD"/>
<path d="M45.5609 7.18025C45.5735 7.54159 45.4433 7.89334 45.1986 8.15948C45.0861 8.28483 44.9479 8.38446 44.7934 8.4516C44.6389 8.51873 44.4718 8.55178 44.3034 8.5485C44.1444 8.55211 43.9864 8.52218 43.8397 8.46066C43.693 8.39914 43.561 8.30741 43.4521 8.19145C43.3379 8.07036 43.2488 7.92783 43.1901 7.7721C43.1313 7.61636 43.104 7.45052 43.1097 7.28417C43.097 6.9224 43.2272 6.57016 43.4721 6.30361C43.584 6.17894 43.7214 6.07971 43.8749 6.01261C44.0284 5.9455 44.1945 5.91208 44.362 5.91459C44.5209 5.91106 44.6787 5.94089 44.8253 6.00216C44.972 6.06343 45.1041 6.15478 45.2132 6.27031C45.3285 6.39141 45.4187 6.5342 45.4783 6.69041C45.538 6.84661 45.5661 7.01311 45.5609 7.18025ZM45.0281 7.23487C45.0388 6.99989 44.9661 6.76868 44.8229 6.58206C44.7631 6.5039 44.6861 6.44062 44.5978 6.39717C44.5095 6.35372 44.4124 6.33128 44.314 6.33159C44.2199 6.33236 44.1273 6.35576 44.044 6.39981C43.9608 6.44387 43.8894 6.50729 43.8358 6.58472C43.7001 6.76909 43.631 6.99411 43.6399 7.22288C43.6298 7.4576 43.703 7.68834 43.8464 7.87437C43.9057 7.95266 43.9821 8.01623 44.0699 8.06013C44.1578 8.10404 44.2545 8.12709 44.3527 8.1275C44.4468 8.12684 44.5395 8.10349 44.6227 8.05943C44.706 8.01536 44.7774 7.95188 44.8309 7.87437C44.9673 7.68976 45.0368 7.46424 45.0281 7.23487" fill="#FCFCFD"/>
<path d="M46.6484 8.47913H46.1035C46.1195 8.07944 46.1288 7.64512 46.1288 7.16817C46.1288 6.69121 46.1195 6.30085 46.1035 5.96912H46.6484C46.6306 6.2933 46.6222 6.69299 46.6231 7.16817C46.624 7.64334 46.6324 8.08033 46.6484 8.47913Z" fill="#FCFCFD"/>
<path d="M49.439 7.13893C49.444 7.48966 49.3192 7.82989 49.0886 8.09417C48.9664 8.23195 48.8146 8.34031 48.6445 8.41114C48.4745 8.48197 48.2907 8.51343 48.1068 8.50318C47.9167 8.50318 47.6547 8.49518 47.3208 8.4792C47.3368 8.0915 47.3461 7.65452 47.3461 7.16824C47.3461 6.68195 47.3368 6.30226 47.3208 5.96919H47.6578C47.7125 5.96919 47.7911 5.96919 47.9043 5.96919L48.1174 5.96252C48.581 5.96252 48.9172 6.07843 49.1259 6.31025C49.3328 6.53706 49.4449 6.83461 49.439 7.14159V7.13893ZM48.9128 7.22552C48.9206 6.99812 48.8437 6.77592 48.6969 6.60202C48.6133 6.5131 48.5107 6.44417 48.3968 6.40035C48.2828 6.35653 48.1605 6.33894 48.0388 6.34889C47.9631 6.35018 47.8875 6.35596 47.8124 6.3662C47.8244 6.622 47.831 6.89112 47.831 7.16557C47.831 7.47199 47.831 7.77709 47.851 8.07818C47.933 8.09517 48.0164 8.10365 48.1001 8.10349C48.2156 8.11262 48.3315 8.09405 48.4383 8.04933C48.5452 8.0046 48.6398 7.93502 48.7143 7.84636C48.8497 7.66627 48.9197 7.44541 48.9128 7.22019" fill="#FCFCFD"/>
<path d="M53.1426 8.47915H52.5258C52.4891 8.23462 52.4307 7.99386 52.3513 7.75972H51.4614C51.3769 7.99283 51.3162 8.23386 51.2802 8.47915H50.7007C50.7007 8.4303 50.8503 8.01951 51.1496 7.24679C51.4489 6.47407 51.599 6.04907 51.5999 5.9718H52.3273C52.3273 6.04463 52.4632 6.46341 52.7349 7.22814C53.0067 7.99287 53.1426 8.40987 53.1426 8.47915V8.47915ZM52.2527 7.39201C52.1245 7.03956 52.0146 6.68069 51.9236 6.31686H51.8916C51.8916 6.36749 51.7784 6.72454 51.5519 7.39201H52.2527Z" fill="#FCFCFD"/>
<path d="M55.3886 6.62869C55.3974 6.76225 55.3705 6.89573 55.3105 7.0154C55.2506 7.13506 55.1598 7.23658 55.0476 7.30949C54.7947 7.46171 54.5033 7.53759 54.2083 7.52798C54.1484 7.52798 54.1044 7.52798 54.0751 7.52798C54.0751 7.77046 54.0822 8.08887 54.0964 8.48322H53.5542C53.5702 8.11285 53.5795 7.67586 53.5795 7.17226C53.5795 6.70996 53.5702 6.31161 53.5542 5.97321H53.8886C53.9365 5.97321 54.0218 5.97321 54.163 5.97321C54.3042 5.97321 54.4148 5.96655 54.5134 5.96655C54.7327 5.95731 54.9499 6.01392 55.1368 6.12909C55.2193 6.18317 55.2861 6.25812 55.3303 6.34633C55.3745 6.43454 55.3946 6.53287 55.3886 6.63136V6.62869ZM54.8917 6.73794C54.8917 6.46171 54.7096 6.32405 54.3455 6.32493C54.2484 6.32525 54.1516 6.33507 54.0564 6.35424C54.0697 6.59672 54.0777 6.87117 54.0777 7.17892C54.1097 7.17892 54.147 7.17892 54.1883 7.17892C54.6572 7.17892 54.8917 7.02971 54.8917 6.73394" fill="#FCFCFD"/>
<path d="M57.6983 6.62873C57.7068 6.76225 57.6798 6.89563 57.6198 7.01525C57.5599 7.13486 57.4693 7.23642 57.3573 7.30953C57.1044 7.46161 56.813 7.53748 56.518 7.52802C56.4581 7.52802 56.4141 7.52802 56.3848 7.52802C56.3848 7.77049 56.3919 8.08891 56.4061 8.48326H55.8652C55.8812 8.11289 55.8905 7.6759 55.8905 7.1723C55.8905 6.71 55.8812 6.31165 55.8652 5.97325H56.1996C56.2476 5.97325 56.3328 5.97325 56.4727 5.97325C56.6126 5.97325 56.7245 5.96659 56.8244 5.96659C57.0433 5.95778 57.2599 6.01436 57.4465 6.12913C57.529 6.18321 57.5958 6.25816 57.64 6.34637C57.6842 6.43458 57.7043 6.53291 57.6983 6.6314V6.62873ZM57.2014 6.73798C57.2014 6.46175 57.0189 6.32409 56.6539 6.32497C56.5572 6.32536 56.4609 6.33518 56.3661 6.35428C56.3795 6.59676 56.3874 6.87121 56.3874 7.17896C56.4194 7.17896 56.4567 7.17896 56.498 7.17896C56.9669 7.17896 57.2014 7.02975 57.2014 6.73398" fill="#FCFCFD"/>
<path d="M61.4752 7.18025C61.4872 7.54149 61.3571 7.89304 61.1129 8.15948C61.0001 8.28517 60.8614 8.38501 60.7065 8.45216C60.5515 8.5193 60.3838 8.55217 60.215 8.5485C60.0559 8.55236 59.8979 8.52255 59.7512 8.46102C59.6045 8.39948 59.4724 8.30762 59.3637 8.19145C59.2493 8.07053 59.1601 7.92803 59.1013 7.77226C59.0425 7.61648 59.0153 7.45056 59.0214 7.28417C59.0087 6.92265 59.1383 6.57059 59.3824 6.30361C59.4952 6.17829 59.6337 6.0787 59.7883 6.01158C59.943 5.94446 60.1103 5.91138 60.2789 5.91459C60.4378 5.91106 60.5957 5.94089 60.7423 6.00216C60.8889 6.06343 61.0211 6.15478 61.1302 6.27031C61.2445 6.39184 61.3337 6.53483 61.3924 6.69101C61.4512 6.8472 61.4784 7.01348 61.4726 7.18025H61.4752ZM60.9397 7.23487C60.95 6.99972 60.8769 6.7685 60.7332 6.58206C60.6738 6.50385 60.597 6.44052 60.5089 6.39705C60.4208 6.35358 60.3239 6.33118 60.2256 6.33159C60.1315 6.33225 60.0388 6.3556 59.9556 6.39966C59.8723 6.44373 59.8009 6.50721 59.7474 6.58472C59.6117 6.76909 59.5426 6.99411 59.5516 7.22288C59.5409 7.45767 59.6141 7.68861 59.758 7.87437C59.8178 7.95338 59.8952 8.01738 59.984 8.06132C60.0727 8.10526 60.1705 8.12791 60.2696 8.1275C60.3636 8.12685 60.4561 8.10349 60.5391 8.05942C60.6221 8.01535 60.6933 7.95186 60.7465 7.87437C60.8829 7.69077 60.9525 7.46609 60.9437 7.23754" fill="#FCFCFD"/>
<path d="M64.0848 8.47913H63.6093C63.6093 8.42672 63.4316 8.14872 63.0764 7.64512C62.706 7.11221 62.4956 6.74983 62.4449 6.55798H62.413C62.4436 6.81089 62.46 7.0653 62.4623 7.32005C62.4623 7.63713 62.4703 8.02349 62.4889 8.47913H62.0146C62.0342 8.08211 62.044 7.64512 62.044 7.16817C62.044 6.69121 62.0342 6.29153 62.0146 5.96912H62.5861C62.5861 6.03706 62.746 6.30885 63.0631 6.78447C63.3997 7.28807 63.5933 7.63002 63.6439 7.81032H63.6785C63.6495 7.55463 63.6339 7.29759 63.6319 7.04027C63.6319 6.69254 63.6239 6.33549 63.6053 5.97445H64.0862C64.0689 6.29286 64.0595 6.69254 64.0595 7.1735C64.0595 7.65445 64.0689 8.09277 64.0862 8.48446" fill="#FCFCFD"/>
<defs>
<linearGradient id="paint0_linear_1343_3870" x1="17.1622" y1="5.56718" x2="17.1622" y2="25.8817" gradientUnits="userSpaceOnUse">
<stop stop-color="#2079B0"/>
<stop offset="0.32" stop-color="#4A98B5"/>
<stop offset="0.78" stop-color="#81BFBC"/>
<stop offset="1" stop-color="#97CFBF"/>
</linearGradient>
<linearGradient id="paint1_linear_1343_3870" x1="11.6294" y1="11.3237" x2="24.6234" y2="11.3237" gradientUnits="userSpaceOnUse">
<stop stop-color="#5ABCAB"/>
<stop offset="1" stop-color="#E6E99A"/>
</linearGradient>
<linearGradient id="paint2_linear_1343_3870" x1="16.9686" y1="16.1211" x2="16.9686" y2="26.3517" gradientUnits="userSpaceOnUse">
<stop stop-color="#E53432"/>
<stop offset="0.18" stop-color="#D43745"/>
<stop offset="0.73" stop-color="#A33E7C"/>
<stop offset="1" stop-color="#904192"/>
</linearGradient>
<linearGradient id="paint3_linear_1343_3870" x1="27.3105" y1="12.489" x2="27.3105" y2="17.946" gradientUnits="userSpaceOnUse">
<stop stop-color="#F18779"/>
<stop offset="0.64" stop-color="#F9B574"/>
<stop offset="1" stop-color="#FDCB72"/>
</linearGradient>
</defs>
</svg>
