<svg width="24" height="24" viewBox="0 0 24 24" fill="none" xmlns="http://www.w3.org/2000/svg">
<path fill-rule="evenodd" clip-rule="evenodd" d="M9.86494 2.88765C10.9913 1.75618 12.7937 1.70636 13.9515 2.71645L14.1338 2.88645L14.8525 3.6052C15.0994 3.85092 15.4233 4.00242 15.7677 4.03645L15.9165 4.04378H16.9445C18.5483 4.04378 19.8597 5.29795 19.9514 6.87883L19.9565 7.05578V8.08278C19.9565 8.43258 20.0771 8.76886 20.2947 9.03624L20.3938 9.14645L21.1126 9.86525C22.2441 10.9917 22.2947 12.7929 21.258 13.98L21.1228 14.1251L20.3944 14.8535C20.1495 15.099 19.9979 15.4231 19.9638 15.7672L19.9565 15.9158V16.9448C19.9565 18.5485 18.7024 19.8591 17.1214 19.9507L16.9445 19.9558H15.9165C15.5679 19.9558 15.2312 20.0769 14.9637 20.2951L14.8534 20.3945L14.1356 21.1113C13.0104 22.2442 11.2078 22.2944 10.0203 21.2574L9.86614 21.1131L9.14903 20.396C8.90063 20.1494 8.5762 19.9973 8.23269 19.9631L8.08447 19.9558H7.05547C5.45234 19.9558 4.14119 18.7023 4.04958 17.1217L4.04447 16.9448V15.9158C4.04447 15.5678 3.92317 15.2308 3.70509 14.9637L3.60577 14.8537L2.88864 14.1356C1.75607 13.0094 1.70583 11.2068 2.74285 10.0204L2.87814 9.87545L3.60426 9.14834C3.85121 8.89963 4.00303 8.57581 4.03713 8.23146L4.04447 8.08278V7.05578L4.04958 6.87885C4.1378 5.35668 5.35697 4.13715 6.8786 4.0489L7.05547 4.04378H8.08447C8.43295 4.04378 8.76972 3.9229 9.03676 3.70572L9.14677 3.60682L9.86494 2.88765ZM13.1052 3.97734L13.0653 3.94031C12.5111 3.38855 11.6352 3.35624 11.0419 3.84256L10.9272 3.94674L10.2059 4.66899C9.68867 5.18258 9.00455 5.48966 8.2823 5.53727L8.08447 5.54378H7.05547C6.26791 5.54378 5.62019 6.14793 5.55065 6.91821L5.54447 7.05578V8.08278C5.54447 8.81195 5.27986 9.5131 4.80257 10.0612L4.66717 10.2067L3.94 10.9349C3.38819 11.4892 3.35606 12.3649 3.84371 12.9589L3.94817 13.0738L4.66743 13.7941C5.18183 14.3097 5.49012 14.995 5.53793 15.7178L5.54447 15.9158V16.9448C5.54447 17.7328 6.14817 18.3801 6.91799 18.4496L7.05547 18.4558H8.08447C8.81226 18.4558 9.51401 18.7207 10.0622 19.198L10.2078 19.3335L10.9311 20.0568C11.4893 20.6119 12.3652 20.6442 12.9587 20.1565L13.0735 20.0521L13.7944 19.3322C14.3111 18.8179 14.9955 18.5101 15.7185 18.4623L15.9165 18.4558H16.9445C17.7332 18.4558 18.3808 17.8524 18.4503 17.0823L18.4565 16.9448V15.9158C18.4565 15.1869 18.7213 14.4839 19.1979 13.9383L19.3331 13.7935L20.0606 13.066C20.6125 12.511 20.6444 11.6358 20.1575 11.0419L20.0531 10.9271L19.3313 10.2052C18.8174 9.68765 18.5105 9.00422 18.463 8.28094L18.4565 8.08278V7.05578C18.4565 6.26737 17.8524 5.61951 17.0821 5.54996L16.9445 5.54378H15.9165C15.1873 5.54378 14.4853 5.27939 13.9384 4.80243L13.7931 4.66711L13.1052 3.97734ZM14.0369 15.1024C14.1769 15.2424 14.3669 15.3224 14.5669 15.3224C14.7669 15.3224 14.9569 15.2424 15.0969 15.1024C15.1669 15.0324 15.2269 14.9424 15.2669 14.8524C15.2969 14.7624 15.3169 14.6734 15.3169 14.5724C15.3169 14.4724 15.2969 14.3724 15.2669 14.2824C15.2269 14.1924 15.1669 14.1124 15.0969 14.0424C14.8169 13.7624 14.3169 13.7624 14.0369 14.0424C13.9669 14.1124 13.9169 14.1924 13.8769 14.2824C13.8369 14.3724 13.8169 14.4724 13.8169 14.5724C13.8169 14.6734 13.8369 14.7624 13.8769 14.8524C13.9169 14.9424 13.9669 15.0324 14.0369 15.1024ZM9.42677 10.1828C9.32677 10.1828 9.23677 10.1618 9.14677 10.1218C9.05677 10.0818 8.96677 10.0328 8.89677 9.96278C8.82677 9.88278 8.77677 9.80278 8.73677 9.71278C8.69677 9.62178 8.67677 9.53278 8.67677 9.43278C8.67677 9.33178 8.69677 9.23278 8.73677 9.14278C8.77677 9.05278 8.82677 8.96278 8.89677 8.90278C9.18677 8.62178 9.67677 8.62178 9.95677 8.90278C10.0968 9.04178 10.1768 9.23278 10.1768 9.43278C10.1768 9.53278 10.1668 9.62178 10.1268 9.71278C10.0868 9.80278 10.0268 9.88278 9.95677 9.96278C9.88677 10.0328 9.80677 10.0818 9.71677 10.1218C9.62677 10.1618 9.52677 10.1828 9.42677 10.1828ZM15.1005 8.89915C14.8076 8.60626 14.3327 8.60626 14.0398 8.89915L8.89984 14.0392L8.82722 14.1233C8.60937 14.4169 8.63357 14.8335 8.89984 15.0998C9.19273 15.3927 9.66761 15.3927 9.9605 15.0998L15.1005 9.95981L15.1731 9.87569C15.391 9.58208 15.3668 9.16542 15.1005 8.89915Z" fill="#200E32"/>
</svg>