<svg width="24" height="24" viewBox="0 0 24 24" fill="none" xmlns="http://www.w3.org/2000/svg">
<path fill-rule="evenodd" clip-rule="evenodd" d="M11.6643 18.6319L5.73297 21.8813C5.2594 22.1274 4.67597 21.9532 4.41489 21.4877V21.4877C4.33936 21.3435 4.29861 21.1836 4.2959 21.0209V6.62271C4.2959 3.87672 6.17233 2.77832 8.87256 2.77832H15.2158C17.8337 2.77832 19.7925 3.80349 19.7925 6.43965V21.0209C19.7925 21.2806 19.6893 21.5298 19.5056 21.7134C19.3219 21.8971 19.0728 22.0003 18.8131 22.0003C18.6474 21.9977 18.4845 21.9569 18.3371 21.8813L12.3691 18.6319C12.1492 18.5131 11.8842 18.5131 11.6643 18.6319Z" stroke="#200E32" stroke-width="1.5" stroke-linecap="round" stroke-linejoin="round"/>
<path d="M8.36914 9.3229H15.6643" stroke="#200E32" stroke-width="1.5" stroke-linecap="round" stroke-linejoin="round"/>
</svg>
